<?xml version="1.0" standalone="no"?>
<!DOCTYPE svg PUBLIC "-//W3C//DTD SVG 20010904//EN"
 "http://www.w3.org/TR/2001/REC-SVG-20010904/DTD/svg10.dtd">
<svg version="1.0" xmlns="http://www.w3.org/2000/svg"
 width="226.000000pt" height="226.000000pt" viewBox="0 0 226.000000 226.000000"
 preserveAspectRatio="xMidYMid meet">
<metadata>
Created by potrace 1.14, written by Peter Selinger 2001-2017
</metadata>
<g transform="translate(0.000000,226.000000) scale(0.100000,-0.100000)"
fill="#000000" stroke="none">
<path d="M1800 2184 c-176 -52 -274 -177 -301 -383 -5 -42 -10 -192 -10 -333
-1 -142 -4 -258 -7 -259 -21 -3 -680 -4 -694 -1 -15 4 -16 29 -16 260 0 258 7
321 38 353 21 22 55 39 79 39 24 0 56 29 43 42 -14 14 -555 5 -559 -9 -5 -13
33 -33 76 -40 30 -5 48 -23 67 -69 14 -32 15 -120 15 -663 -1 -344 -3 -635 -5
-647 -2 -12 -7 -45 -11 -75 -3 -30 -10 -63 -14 -74 -34 -79 -45 -99 -74 -128
-18 -18 -49 -44 -69 -58 -21 -13 -38 -29 -38 -35 0 -28 127 -27 197 1 17 7 33
11 36 9 2 -3 10 2 17 11 7 8 17 15 23 15 21 0 105 98 130 151 42 91 48 147 49
488 1 222 4 321 12 324 6 2 166 3 356 3 l345 -1 0 -287 c0 -271 -1 -287 -20
-308 -24 -26 -67 -50 -92 -50 -29 0 -50 -17 -37 -30 13 -13 505 -17 543 -5 29
9 26 24 -6 30 -51 11 -92 34 -110 62 -17 25 -18 67 -18 668 1 685 4 731 51
830 25 55 85 118 123 130 15 5 21 13 19 28 -3 19 -10 22 -48 23 -25 1 -65 -5
-90 -12z"/>
</g>
</svg>
