<?xml version="1.0" encoding="UTF-8"?>
<svg width="95px" height="34px" viewBox="0 0 95 34" version="1.1" xmlns="http://www.w3.org/2000/svg" xmlns:xlink="http://www.w3.org/1999/xlink">
    <title>8451-logo</title>
    <g id="Page-1" stroke="none" stroke-width="1" fill="none" fill-rule="evenodd">
        <g id="D-Hearty-Home_v1.0" transform="translate(-883.000000, -920.000000)" fill="#484D6D">
            <g id="Group-2" transform="translate(530.000000, 902.000000)">
                <path d="M422.680876,18.0030121 L422.680876,21.0291023 L408.731601,21.0291023 L408.731601,31.7150839 C410.055852,30.249372 412.136356,29.3984522 414.783781,29.3984522 C417.290283,29.3984522 419.276121,30.2025767 420.599834,31.5262895 C423.059003,33.9849205 423.389797,37.3891374 423.389797,40.5572268 C423.389797,43.9146486 423.106336,47.082738 420.6945,49.4940359 C419.134122,51.0544141 416.958952,52 413.980195,52 C411.048771,52 408.684268,51.0544141 407.21861,49.5887021 C405.753436,48.075657 405.043439,46.137152 404.854645,43.7253162 L408.258808,43.7253162 C408.684268,47.082738 410.433978,48.9739099 413.980195,48.9739099 C415.635239,48.9739099 417.148284,48.4064507 418.141203,47.4135317 C419.890914,45.6638212 419.98558,42.9685248 419.98558,40.5572268 C419.98558,36.4435515 419.181455,32.3772092 414.310988,32.3772092 C411.379564,32.3772092 409.393726,33.700922 408.731601,35.6872979 L405.658232,35.6872979 L405.658232,18.0030121 L422.680876,18.0030121 Z M384.886914,18.0032273 L373.18112,40.9753716 L373.18112,46.9624689 L387.327257,46.9635447 L387.327257,51.99645 L362.556456,51.99645 C366.670131,50.7136159 369.583267,47.3798607 369.583267,42.2420695 C369.583267,38.0127508 367.103659,35.7283916 365.208184,34.4638452 C366.957895,33.2487835 369.097028,30.9644243 369.097028,27.2697543 C369.097028,22.5735593 366.264035,19.2855235 362.337003,18.0032273 L362.337003,18.0032273 L384.886914,18.0032273 Z M398.435633,46.9628454 L398.435633,51.9952129 L393.403266,51.9952129 L393.403266,46.9628454 L398.435633,46.9628454 Z M436.698999,18.0032273 L436.698999,51.9926849 L433.289942,51.9926849 L433.289942,21.7909498 L426.991952,27.33161 L426.991952,23.4486835 L433.289942,18.0032273 L436.698999,18.0032273 Z M358.499903,37.3322839 C361.173147,37.3322839 363.26387,39.4714166 363.26387,42.1446602 C363.26387,44.8184416 361.173147,46.9086275 358.499903,46.9086275 C355.826122,46.9086275 353.735936,44.8184416 353.735936,42.1446602 C353.735936,39.4714166 355.826122,37.3322839 358.499903,37.3322839 Z M395.929669,18.0036038 L395.929669,40.9757481 L393.403804,40.9757481 L393.403804,34.5104791 L387.327419,34.5104791 L387.327419,40.9757481 L380.083843,40.9757481 L391.790176,18.0036038 L395.929669,18.0036038 Z M358.499903,23.0890058 C360.978973,23.0890058 362.777093,24.9850186 362.777093,27.4640889 C362.777093,29.991568 360.978973,31.8391719 358.499903,31.8391719 C356.020295,31.8391719 354.173229,29.991568 354.173229,27.4640889 C354.173229,24.9850186 356.020295,23.0890058 358.499903,23.0890058 Z M443.841454,18 C445.778883,18 447.350019,19.5705978 447.350019,21.5085649 C447.350019,23.4459941 445.778883,25.0165919 443.841454,25.0165919 C441.904025,25.0165919 440.332889,23.4459941 440.332889,21.5085649 C440.332889,19.5705978 441.904025,18 443.841454,18 Z M443.841454,19.2005391 C442.56884,19.2005391 441.533428,20.2359504 441.533428,21.5085649 C441.533428,22.7811794 442.56884,23.8160527 443.841454,23.8160527 C445.114069,23.8160527 446.14948,22.7811794 446.14948,21.5085649 C446.14948,20.2359504 445.114069,19.2005391 443.841454,19.2005391 Z" id="8451-logo"></path>
            </g>
        </g>
    </g>
</svg>