<?xml version="1.0" encoding="UTF-8"?>
<svg width="131px" height="30px" viewBox="0 0 131 30" version="1.1" xmlns="http://www.w3.org/2000/svg" xmlns:xlink="http://www.w3.org/1999/xlink">
    <title>cintrifuse-logo</title>
    <g id="Page-1" stroke="none" stroke-width="1" fill="none" fill-rule="evenodd">
        <g id="D-Hearty-Home_v1.0" transform="translate(-1180.000000, -922.000000)" fill="#484D6D" fill-rule="nonzero">
            <g id="Group-2" transform="translate(530.000000, 902.000000)">
                <path d="M729.099697,20 L729.099697,22.4994857 C729.099697,22.4994857 729.085838,22.4982257 729.059981,22.4963631 L728.948281,22.489625 C728.492387,22.4667262 727.121844,22.4487715 726.433579,22.9993828 C725.433785,23.6659124 725.433785,25.1656038 725.433785,26.3320304 L725.433785,26.6652952 L729.099697,26.6652952 L729.099697,29.1647809 L725.433785,29.1647809 L725.433785,43.661798 C725.433785,46.8278132 724.767256,47.6609751 723.934094,48.8274018 C722.934299,50.1604608 719.101755,49.9938284 719.101755,49.9938284 L719.101755,49.9938284 L719.101755,47.4943427 C719.101755,47.4943427 721.434608,47.3277103 721.934505,46.8278132 C722.767667,45.9946513 722.767667,44.6615923 722.767667,43.4951656 L722.767667,29.1647809 L719.101755,29.1647809 L719.101755,26.6652952 L721.434608,26.6652952 C722.101137,26.6652952 722.767667,26.4986628 722.767667,25.8321333 C722.767667,24.1658095 723.434197,22.4994857 724.600623,21.333059 C725.600417,20.4998971 726.766844,20 728.099903,20 L728.099903,20 L729.099697,20 Z M716.102372,47.4943427 L716.102372,49.9938284 L702.771781,49.9938284 L702.771781,47.4943427 L716.102372,47.4943427 Z M671.944791,26.6652952 L671.944791,43.4951656 L669.278673,43.4951656 L669.278673,26.6652952 L671.944791,26.6652952 Z M683.275793,26.6652952 C687.27497,26.6652952 689.441191,29.9979428 689.441191,33.4972228 L689.441191,33.4972228 L689.441191,43.4951656 L686.775073,43.4951656 L686.775073,32.9973257 C686.775073,30.1645752 685.775279,28.9981485 682.942528,28.9981485 C681.109572,28.9981485 678.776719,30.9977371 678.776719,33.3305904 L678.776719,33.3305904 L678.776719,43.4951656 L676.110601,43.4951656 L676.110601,27.1651923 L678.776719,27.1651923 L678.776719,28.6648838 C679.943145,27.3318247 681.442837,26.6652952 683.275793,26.6652952 Z M705.271267,28.9981485 C706.604326,27.3318247 708.603915,26.3320304 710.603503,26.6652952 L710.603503,26.6652952 L710.603503,29.3314133 L709.437077,29.3314133 C707.104223,29.3314133 705.271267,31.4976342 705.437899,33.9971199 L705.437899,33.9971199 L705.437899,43.4951656 L702.771781,43.4951656 L702.771781,26.99856 L705.271267,26.99856 Z M716.102372,26.6652952 L716.102372,43.4951656 L713.436254,43.4951656 L713.436254,26.6652952 L716.102372,26.6652952 Z M734.431934,26.6652952 L734.431934,37.1631352 C734.431934,39.6626209 736.431522,41.1623123 738.597743,41.1623123 C740.763964,41.1623123 742.59692,38.6628266 742.59692,37.1631352 L742.59692,37.1631352 L742.59692,26.6652952 L745.263038,26.6652952 L745.263038,43.4951656 L742.763553,43.4951656 L742.763553,41.495577 C741.597126,42.8286361 739.930802,43.4951656 738.097846,43.4951656 C735.098463,43.4951656 731.932448,40.8290475 731.932448,36.8298704 L731.932448,36.8298704 L731.932448,26.6652952 L734.431934,26.6652952 Z M755.094349,26.6652952 C758.760261,26.6652952 761.259747,28.4982514 761.593012,31.6642666 L761.593012,31.6642666 L758.926893,31.6642666 C758.426996,29.9979428 756.760673,28.4982514 755.094349,28.6648838 C752.928128,28.8315161 751.428436,30.1645752 751.428436,31.3310019 C751.428436,32.4974285 752.261598,32.8306933 755.427614,33.3305904 C758.926893,33.8304876 761.926276,35.1635466 761.926276,38.3295618 C761.926276,41.495577 759.426791,43.4951656 755.427614,43.4951656 C751.428436,43.4951656 748.762318,41.3289447 748.262421,37.9962971 L748.262421,37.9962971 L750.928539,37.9962971 C751.428436,39.9958856 753.428025,41.3289447 755.427614,41.1623123 C757.927099,40.9956799 759.426791,39.4959885 759.426791,38.3295618 C759.426791,37.1631352 758.926893,36.3299733 755.094349,35.8300761 C751.261804,35.330179 748.928951,33.4972228 748.928951,31.3310019 C748.928951,29.1647809 751.428436,26.6652952 755.094349,26.6652952 Z M696.106486,23.1660152 L696.106486,26.6652952 L699.772399,26.6652952 L699.772399,29.3314133 L696.106486,29.3314133 L696.106486,37.9962971 C696.106486,39.8292532 697.439545,40.8290475 699.272501,40.8290475 L699.272501,40.8290475 L699.772399,40.8290475 L699.772399,43.4951656 L698.939237,43.4951656 C695.773221,43.4951656 693.607,41.1623123 693.607,37.3297675 L693.607,37.3297675 L693.607,29.3314133 L691.44078,29.3314133 L691.44078,26.6652952 L693.607,26.6652952 L693.607,23.1660152 L696.106486,23.1660152 Z M772.090852,26.6652952 C776.090029,26.6652952 780.089206,30.1645752 780.089206,35.8300761 L780.089206,35.8300761 L766.758615,35.8300761 C766.925248,38.829459 769.424733,41.3289447 771.757587,41.3289447 C773.757175,41.3289447 776.589926,40.9956799 777.089823,37.9962971 L777.089823,37.9962971 L779.755941,37.9962971 C778.756147,41.3289447 775.756764,43.4951656 772.257484,43.3285332 L772.257484,43.3285332 L772.090852,43.3285332 C767.591777,43.3285332 763.925865,39.4959885 764.092497,34.9969142 C763.925865,30.49784 767.591777,26.8319276 772.090852,26.6652952 Z M658.447568,26.6652952 C661.780216,26.4986628 664.779599,28.6648838 665.779393,31.9975314 L665.779393,31.9975314 L663.113275,31.9975314 C662.280113,30.1645752 660.447157,28.9981485 658.447568,28.9981485 C655.281553,29.1647809 652.9487,31.9975314 653.115332,34.9969142 C652.9487,37.9962971 655.448185,40.6624151 658.447568,40.8290475 C660.447157,40.9956799 662.280113,39.8292532 663.113275,37.9962971 L663.113275,37.9962971 L665.779393,37.9962971 C664.779599,41.1623123 661.780216,43.3285332 658.447568,43.3285332 C653.948494,43.3285332 650.282582,39.4959885 650.449214,34.9969142 C650.282582,30.49784 653.948494,26.8319276 658.447568,26.6652952 Z M772.257484,28.9981485 C769.591366,29.1647809 767.425145,30.9977371 766.925248,33.3305904 L766.925248,33.3305904 L777.423088,33.3305904 C776.923191,30.8311047 774.75697,29.1647809 772.257484,28.9981485 Z M716.102372,22.3328533 L716.102372,24.9989714 L713.436254,24.9989714 L713.436254,22.3328533 L716.102372,22.3328533 Z M671.944791,22.3328533 L671.944791,24.9989714 L669.278673,24.9989714 L669.278673,22.3328533 L671.944791,22.3328533 Z M745.263038,20 L745.263038,22.4994857 L731.932448,22.4994857 L731.932448,20 L745.263038,20 Z" id="cintrifuse-logo"></path>
            </g>
        </g>
    </g>
</svg>