<?xml version="1.0" encoding="UTF-8"?>
<svg width="168px" height="30px" viewBox="0 0 168 30" version="1.1" xmlns="http://www.w3.org/2000/svg" xmlns:xlink="http://www.w3.org/1999/xlink">
    <title>coterie-logo</title>
    <g id="Page-1" stroke="none" stroke-width="1" fill="none" fill-rule="evenodd">
        <g id="D-Hearty-Home_v1.0" transform="translate(-761.000000, -817.000000)" fill="#484D6D" fill-rule="nonzero">
            <g id="Group-11" transform="translate(464.000000, 802.000000)">
                <path d="M325.594694,21.4864865 L325.594694,45 C319.069632,45 313.780023,39.7363459 313.780023,33.2433005 C313.780023,26.750255 319.069632,21.4864865 325.594694,21.4864865 Z M360.702674,23.1081081 C365.407928,23.1081081 369.435246,26.2541711 370.033506,30.475484 L365.487604,30.475484 C365.009203,28.6835157 363.015348,27.3692068 360.702674,27.3692068 C357.472576,27.3692068 355.000549,29.9179089 355.000549,33.2631305 C355.000549,36.5685776 357.472576,39.1172797 360.702674,39.1172797 C363.015348,39.1172797 365.049041,37.8030855 365.527442,35.8516298 L370.073459,35.8516298 C369.555105,40.2722158 365.447766,43.3783784 360.702674,43.3783784 C355.000549,43.3783784 350.613999,39.0375934 350.613999,33.2631305 C350.613999,27.4887937 355.000549,23.1081081 360.702674,23.1081081 Z M414.753552,23.1081081 C420.016499,23.1081081 424.281953,27.1302669 424.281953,32.8250385 C424.281953,33.3428284 424.241777,33.9003927 424.162575,34.2987102 L409.132244,34.2987102 C409.570728,37.4048763 411.603935,39.3561049 414.913106,39.3561049 C417.305249,39.3561049 419.178559,38.2411827 419.578016,36.56857 L424.043198,36.56857 C423.325785,40.6704152 419.617044,43.3783784 414.833904,43.3783784 C409.132244,43.3783784 404.706664,38.9580167 404.706664,33.1437842 C404.706664,27.4887986 409.132244,23.1081081 414.753552,23.1081081 Z M454.83094,23.1081081 C460.093794,23.1081081 464.359173,27.1302669 464.359173,32.8250385 C464.359173,33.3428284 464.318999,33.9003927 464.239798,34.2987102 L449.209961,34.2987102 C449.648436,37.4048763 451.681264,39.3561049 454.990491,39.3561049 C457.382592,39.3561049 459.25587,38.2411827 459.655319,36.56857 L464.120422,36.56857 C463.401873,40.6704152 459.694345,43.3783784 454.910142,43.3783784 C449.209961,43.3783784 444.783884,38.9580167 444.783884,33.1437842 C444.783884,27.4887986 449.209961,23.1081081 454.83094,23.1081081 Z M381.714328,23.1081081 C387.311866,23.1081081 391.849521,27.6457704 391.849521,33.2433178 C391.849521,38.8407161 387.311866,43.3783784 381.714328,43.3783784 C376.116905,43.3783784 371.57925,38.8407161 371.57925,33.2433178 C371.57925,27.6457704 376.116905,23.1081081 381.714328,23.1081081 Z M398.48268,18.4749035 L398.48268,23.2095757 L403.548362,23.2095757 L403.548362,27.4270447 L398.48268,27.4270447 L398.48268,35.6234047 C398.48268,38.0128636 399.894088,39.0212113 401.925259,39.0818996 L402.123732,39.0848289 L403.548362,39.0848289 L403.548362,43.2625483 L401.174016,43.2625483 C396.985267,43.2625483 394.164842,40.7404327 394.053701,35.9961445 L394.050293,35.7029039 L394.050293,18.4749035 L398.48268,18.4749035 Z M442.583111,23.5714286 L442.583111,43.030888 L438.181567,43.030888 L438.181567,23.5714286 L442.583111,23.5714286 Z M430.876266,23.5714286 L430.876266,26.5560416 C431.956184,24.7949815 433.600128,23.7066163 435.703804,23.5853971 L435.980795,23.5750949 L435.980795,27.5907456 C433.241269,27.5907456 430.991326,29.4443779 430.880541,32.7828356 L430.876266,33.0425625 L430.876266,43.030888 L426.482725,43.030888 L426.482725,23.5714286 L430.876266,23.5714286 Z M303.586972,27.3938224 C306.849504,27.3938224 309.494308,30.0386269 309.494308,33.3011583 C309.494308,36.5636897 306.849504,39.2084942 303.586972,39.2084942 C300.324441,39.2084942 297.679637,36.5636897 297.679637,33.3011583 C297.679637,30.0386269 300.324441,27.3938224 303.586972,27.3938224 Z M335.903517,27.3938224 C339.166017,27.3938224 341.810911,30.0386269 341.810911,33.3011583 C341.810911,36.5636897 339.166017,39.2084942 335.903517,39.2084942 C332.641018,39.2084942 329.996239,36.5636897 329.996239,33.3011583 C329.996239,30.0386269 332.641018,27.3938224 335.903517,27.3938224 Z M381.714328,27.3668049 C378.468837,27.3668049 375.837825,29.9978208 375.837825,33.2433178 C375.837825,36.4887804 378.468837,39.1197963 381.714328,39.1197963 C384.959934,39.1197963 387.590831,36.4887804 387.590831,33.2433178 C387.590831,29.9978208 384.959934,27.3668049 381.714328,27.3668049 Z M414.514798,26.7719646 C411.88298,26.7719646 409.969495,28.4046768 409.291568,30.9135958 L419.458638,30.9135958 C419.178559,28.4843632 417.185872,26.7719646 414.514798,26.7719646 Z M454.592189,26.7719646 C451.960189,26.7719646 450.046737,28.4046768 449.369511,30.9135958 L459.534796,30.9135958 C459.25587,28.4843632 457.263216,26.7719646 454.592189,26.7719646 Z M440.420257,15 C441.967442,15 443.278092,16.3097889 443.278092,17.8179545 C443.278092,19.4056535 441.967442,20.6756757 440.420257,20.6756757 C438.871931,20.6756757 437.602416,19.4056535 437.602416,17.8179545 C437.602416,16.3097889 438.871931,15 440.420257,15 Z" id="coterie-logo"></path>
            </g>
        </g>
    </g>
</svg>