<?xml version="1.0" encoding="UTF-8"?>
<svg width="62px" height="60px" viewBox="0 0 62 60" version="1.1" xmlns="http://www.w3.org/2000/svg" xmlns:xlink="http://www.w3.org/1999/xlink">
    <title>jj-logo</title>
    <g id="Page-1" stroke="none" stroke-width="1" fill="none" fill-rule="evenodd">
        <g id="D-Hearty-Home_v1.0" transform="translate(-988.000000, -802.000000)" fill="#484D6D">
            <g id="Group-11" transform="translate(464.000000, 802.000000)">
                <path d="M584.371993,22.6253558 C582.77825,23.6408007 580.773992,25.5465195 578.697448,27.9590097 C578.386613,25.2314995 578.049146,22.390993 577.841795,19.146325 C577.365841,11.5611151 577.336926,5.22913688 578.592441,1.98800714 C579.336238,0.0556561628 578.622878,-0.322139568 577.336926,0.234091407 C571.955715,2.53282434 564.06804,9.22966267 563.91015,19.990183 C563.856125,23.7469487 564.741833,27.0824323 566.16551,29.7973873 C564.25865,31.4622756 561.944395,31.20889 560.151672,31.5520639 C559.27167,28.6172037 558.489447,25.1942145 555.45757,23.5300871 C550.468611,19.8334339 544.030105,23.5399791 539.025167,26.8678534 C538.750856,24.4698207 538.473882,21.9660204 538.293545,19.146325 C537.81721,11.5611151 537.785252,5.22913688 539.042288,1.98800714 C539.787227,0.0556561628 539.074627,-0.322139568 537.785252,0.234091407 C532.407084,2.53282434 524.518648,9.22966267 524.361519,19.990183 C524.24624,28.0351015 528.397427,34.1795134 533.048918,36.3279651 C532.910431,36.5608059 532.757106,36.7875595 532.61139,37.0124107 C529.200576,42.6679329 528.282529,45.6610034 527.399483,49.0337719 C526.12,53.972129 526.513395,59.2563233 529.683759,59.9244092 C534.017947,60.8455003 538.477306,53.1864813 539.461934,45.8051973 C540.265083,39.7056796 539.935225,35.0328828 539.406007,30.1774658 C539.464217,30.1017545 539.545255,29.9975087 539.600802,29.9309284 C540.149424,29.2514287 540.553471,28.6959587 540.882568,28.2158195 C542.879216,26.3184707 545.141045,25.1565491 547.241178,24.2152937 C549.687529,23.6271042 552.230897,24.1175157 554.088678,25.6831043 C554.967538,26.7586617 556.240554,28.0282532 555.749382,29.3982859 C553.793823,28.9093961 552.230897,27.6382828 550.0775,27.7352998 C548.023021,27.5401244 545.969684,27.8353605 544.894507,29.693522 C544.209681,31.1594303 545.381875,32.5287021 546.360796,33.6042595 C549.100862,36.7346757 557.315351,32.0413341 557.804621,37.6158186 C559.174653,37.125407 559.076115,35.1690871 559.663543,33.8968324 C562.088588,32.9460655 564.362896,32.6059352 567.546196,32.0185066 C568.997266,33.9911862 570.755748,35.4768784 572.597549,36.3279651 C572.459823,36.5608059 572.308401,36.7875595 572.160782,37.0124107 C568.748446,42.6679329 567.833062,45.6610034 566.948875,49.0337719 C565.669772,53.972129 566.064308,59.2563233 569.234292,59.9244092 C573.565817,60.8455003 578.026318,53.1864813 579.012087,45.8051973 C579.815236,39.7056796 579.484998,35.0328828 578.954638,30.1774658 C579.012468,30.1017545 579.091984,29.9975087 579.149813,29.9309284 C581.101568,27.5093072 583.802826,25.0796964 584.730385,24.1175157 C585.456681,23.3478473 585.713111,21.7684481 584.371993,22.6253558 Z M536.56512,49.0079007 C535.849477,56.4485363 532.439423,57.1162417 530.951829,56.5676199 C529.200576,55.918557 528.724622,50.5339216 531.4255,43.7077272 C532.714114,40.4464331 534.342098,37.5290739 535.847194,35.1690871 C536.462396,40.2447899 536.936067,45.136731 536.56512,49.0079007 Z M537.434468,2.94029587 C536.44908,5.18994961 534.481346,9.43891509 534.238994,16.561487 C534.074255,21.2403711 534.824901,26.9519349 535.52913,32.5876732 C534.94056,33.4182151 534.36835,34.2780523 533.798422,35.1485423 C530.493756,32.8452439 528.848652,27.9590097 528.619235,20.420482 C528.260082,9.13530885 533.755431,3.60838178 536.78046,2.17975844 C537.51855,1.82783392 537.906618,1.87044532 537.434468,2.94029587 Z M554.967538,32.7250189 C553.600169,33.2131477 551.251976,32.9186725 549.883085,32.0413341 C549.491593,31.649081 548.415655,30.8653356 549.100862,30.0834924 C551.348993,28.8108573 553.305694,30.1812704 554.967538,32.0413341 L554.967538,32.7250189 Z M576.113751,49.0079007 C575.399249,56.4485363 571.988815,57.1162417 570.502742,56.5676199 C568.748446,55.918557 568.273253,50.5339216 570.97337,43.7077272 C572.265028,40.4464331 573.889968,37.5290739 575.397347,35.1690871 C576.011027,40.2447899 576.485459,45.136731 576.113751,49.0079007 Z M576.982339,2.94029587 C575.99695,5.18994961 574.030358,9.43891509 573.787244,16.561487 C573.624408,21.2403711 574.373151,26.9519349 575.079283,32.5876732 C574.489572,33.4182151 573.91584,34.2780523 573.347814,35.1485423 C570.043148,32.8452439 568.396902,27.9590097 568.168627,20.420482 C567.810615,9.13530885 573.305203,3.60838178 576.330232,2.17975844 C577.068322,1.82783392 577.45601,1.87044532 576.982339,2.94029587 Z" id="jj-logo"></path>
            </g>
        </g>
    </g>
</svg>