<?xml version="1.0" encoding="UTF-8"?>
<svg width="109px" height="60px" viewBox="0 0 109 60" version="1.1" xmlns="http://www.w3.org/2000/svg" xmlns:xlink="http://www.w3.org/1999/xlink">
    <title>kroger-logo</title>
    <g id="Page-1" stroke="none" stroke-width="1" fill="none" fill-rule="evenodd">
        <g id="D-Hearty-Home_v1.0" transform="translate(-1318.000000, -802.000000)" fill="#484D6D" fill-rule="nonzero">
            <g id="Group-11" transform="translate(464.000000, 802.000000)">
                <path d="M919.600085,21.9093017 C921.395155,21.9093017 922.879309,22.5062269 924.052546,23.7000773 L924.052546,23.7000773 L924.052546,22.2305248 L929.040951,22.2305248 L929.040951,44.5392081 L929.044386,44.5374903 L929.038374,44.7599416 L929.038374,44.9952761 C928.788438,53.3101434 921.95343,60 913.581018,60 C905.057441,60 898.121085,53.06622 898.121085,44.540067 L898.121085,44.540067 L903.056239,44.540067 C903.108419,50.3168294 907.806167,54.9723351 913.583165,54.9723351 C919.360163,54.9723351 924.057911,50.3168294 924.110091,44.540067 L924.110091,44.540067 L924.110091,37.7548742 C922.83436,38.6996479 921.329593,39.177188 919.595791,39.1874946 C917.461175,39.1880672 915.563611,38.3704085 913.9031,36.7345186 C912.242588,35.0986286 911.412333,33.0544819 911.412333,30.6020785 C911.412333,28.1370781 912.223407,26.0720318 913.845554,24.4069398 C915.467702,22.7418477 917.385879,21.9093017 919.600085,21.9093017 Z M931.005221,50.7343468 C932.062509,50.7343468 932.895627,51.5588766 932.895627,52.580091 C932.873674,53.6114937 932.031275,54.4361533 930.999638,54.4361533 C929.968002,54.4361533 929.125603,53.6114937 929.103649,52.580091 C929.103649,51.5562999 929.947933,50.7343468 931.005221,50.7343468 Z M931.005221,51.1088208 C930.183268,51.1088208 929.576895,51.7701623 929.576895,52.580091 L929.576036,52.580091 C929.576036,53.4011853 930.184127,54.053938 931.016387,54.053938 C931.826315,54.053938 932.42324,53.4011853 932.42324,52.5938332 C932.42324,51.7864811 931.827174,51.1088208 931.005221,51.1088208 Z M930.991479,51.6464829 C931.340186,51.6464829 931.498221,51.7023104 931.633066,51.7813278 C931.751263,51.8823322 931.817542,52.031301 931.813432,52.1867216 C931.813432,52.3894185 931.656256,52.5465945 931.431228,52.6161642 L931.431228,52.6384952 C931.610735,52.7063472 931.712084,52.8411921 931.76877,53.0885511 C931.825456,53.3694065 931.854659,53.4819205 931.903615,53.5497724 L931.442394,53.5497724 C931.385707,53.4819205 931.356505,53.313579 931.296383,53.0997166 C931.262887,52.8970197 931.150373,52.8068367 930.91332,52.8068367 L930.710623,52.8068367 L930.712341,53.5480546 L930.282899,53.5480546 L930.282899,51.7023104 C930.516792,51.661308 930.754051,51.6426149 930.991479,51.6464829 Z M930.962277,51.9505282 C930.882944,51.9487231 930.803672,51.9562178 930.726083,51.9728592 L930.723507,52.5019325 L930.926204,52.5019325 C931.162397,52.5019325 931.355646,52.4229151 931.355646,52.2322425 C931.355646,52.0604655 931.231967,51.9505282 930.962277,51.9505282 Z M939.943639,21.9093017 C942.392607,21.9115921 944.397531,22.8002519 945.958412,24.5752813 C947.519292,26.3503106 948.299733,28.5026769 948.299733,31.03238 C948.299733,31.1345873 948.294579,31.2591257 948.284273,31.4068539 C948.273966,31.5551547 948.258793,31.7183429 948.238752,31.8964184 C948.220848,32.0360412 948.210526,32.1765319 948.207832,32.3172722 L948.207832,32.3172722 L936.332886,32.3172722 C936.730836,34.3167568 938.056955,35.3164992 940.311242,35.3164992 C941.882429,35.3164992 943.157587,34.8698789 944.136716,33.9766383 L944.136716,33.9766383 L947.931271,36.0989436 C946.959058,37.2006357 945.798313,38.1202745 944.50346,38.8147385 C943.258649,39.4697816 941.759036,39.7973031 940.00462,39.7973031 C937.393036,39.7950127 935.281324,38.9610352 933.669483,37.2953706 C932.057642,35.629706 931.251721,33.4799164 931.251721,30.8460019 C931.251721,28.2756449 932.093429,26.1436056 933.776844,24.4498841 C935.460258,22.7561625 937.515857,21.9093017 939.943639,21.9093017 Z M900.580932,21.9058662 C903.085441,21.9058662 905.18198,22.7679006 906.870548,24.4919694 C908.559116,26.2160382 909.4034,28.3329039 909.4034,30.8425663 C909.4034,33.3734146 908.559116,35.497724 906.870548,37.2154943 C905.18198,38.9367002 903.085441,39.7961579 900.580932,39.7938721 C898.076995,39.793295 895.983319,38.9246758 894.299905,37.18801 C892.61649,35.4513442 891.774782,33.3361963 891.774782,30.8425663 C891.775355,28.3489364 892.617062,26.2360789 894.299905,24.5039938 C895.982747,22.7719087 898.076423,21.9058662 900.580932,21.9058662 Z M888.474945,21.9093017 C889.117391,21.9093017 889.663356,21.9908958 890.112839,22.154084 L890.112839,22.154084 L890.112839,27.1115692 C889.503613,26.9863748 888.883033,26.9247774 888.261083,26.9277678 C886.12933,26.9283403 884.614543,27.9280827 883.716722,29.9269948 L883.716722,29.9269948 L883.716722,39.4941166 L878.477522,39.4941166 L878.477522,22.2305248 L883.591324,22.2305248 L883.591324,25.0459504 C885.070325,22.9548513 886.698198,21.9093017 888.474945,21.9093017 Z M960.501055,21.9093017 C961.140639,21.9093017 961.686317,21.9908958 962.138091,22.154084 L962.138091,22.154084 L962.138091,27.1115692 C961.528866,26.9863626 960.908285,26.924765 960.286334,26.9277678 C958.154581,26.9283403 956.639794,27.9280827 955.741973,29.9269948 L955.741973,29.9269948 L955.741973,39.4941166 L950.508785,39.4941166 L950.508785,22.2305248 L955.620011,22.2305248 L955.620011,25.0468092 C957.099011,22.9551376 958.726026,21.9093017 960.501055,21.9093017 Z M885.829579,1.13686838e-13 C895.3048,1.13686838e-13 903.013295,7.70849437 903.013295,17.1837155 L903.013295,17.1837155 L898.077282,17.1837155 C898.077282,10.4328781 892.580416,4.93601306 885.829579,4.93601306 C879.078742,4.93601306 873.581877,10.4303015 873.581877,17.1837155 L873.581877,17.1837155 C873.559914,17.7823748 873.51347,18.3798324 873.435866,18.9736322 C873.121514,21.4120072 872.189624,24.9488963 869.531374,27.9704544 C869.354444,28.1705746 869.171501,28.3638238 868.985982,28.5536374 L868.985982,28.5536374 L876.295954,39.4906811 L869.669655,39.4906811 L864.674379,31.6043975 C863.178407,32.3000941 861.595579,32.7912072 859.968547,33.0645023 L859.968547,33.0645023 L859.968547,39.49154 L854.428737,39.49154 L854.428737,16.5532938 L859.967688,16.5532938 L859.967688,28.0219875 C862.427535,27.4465344 864.390946,26.3420081 865.826144,24.7101263 C867.660722,22.625612 868.315193,20.097054 868.54108,18.3432105 C868.605477,17.8611226 868.639613,17.3754741 868.643287,16.8891179 L868.643287,16.8891179 C868.811628,7.54960062 876.45313,1.13686838e-13 885.829579,1.13686838e-13 Z M900.581791,26.6683844 C899.454361,26.668957 898.531059,27.0763549 897.811886,27.890578 C897.092713,28.7048012 896.733126,29.6899425 896.733126,30.8460019 C896.733126,32.022102 897.092713,33.0149732 897.811886,33.8246156 C898.531059,34.6336855 899.454361,35.0382204 900.581791,35.0382204 C901.709221,35.0382204 902.635099,34.6311088 903.359425,33.8168857 C904.083752,33.0026625 904.445916,32.0123679 904.445916,30.8460019 C904.446488,29.690515 904.084324,28.7053738 903.359425,27.890578 C902.634526,27.0757823 901.708648,26.6683844 900.581791,26.6683844 Z M920.227071,26.5137845 C919.094488,26.5132125 918.16861,26.9045779 917.449436,27.6878811 C916.730263,28.4711844 916.370677,29.4445876 916.370677,30.6080907 C916.370677,31.772739 916.730263,32.7461422 917.449436,33.5283003 C918.16861,34.3104584 919.094488,34.7015374 920.227071,34.7015374 C921.380268,34.7015374 922.311299,34.3104584 923.020166,33.5283003 L923.020166,33.5283003 C923.729319,32.7455696 924.084038,31.7721664 924.083466,30.6080907 C924.084038,29.444015 923.727028,28.4706118 923.012436,27.6878811 C922.297843,26.9051504 921.369388,26.5137845 920.227071,26.5137845 Z M939.836278,26.2114575 C939.050694,26.2003105 938.288389,26.4781515 937.694219,26.9921841 C937.08212,27.5126686 936.648669,28.2518824 936.393867,29.2098256 L936.393867,29.2098256 L943.065687,29.2106845 C942.943152,28.419365 942.568106,27.7216639 941.940547,27.1175814 C941.312988,26.5134988 940.611565,26.2114575 939.836278,26.2114575 Z" id="kroger-logo"></path>
            </g>
        </g>
    </g>
</svg>