<?xml version="1.0" encoding="UTF-8"?>
<svg width="93px" height="40px" viewBox="0 0 93 40" version="1.1" xmlns="http://www.w3.org/2000/svg" xmlns:xlink="http://www.w3.org/1999/xlink">
    <title>pg-logo</title>
    <g id="Page-1" stroke="none" stroke-width="1" fill="none" fill-rule="evenodd">
        <g id="D-Hearty-Home_v1.0" transform="translate(-609.000000, -812.000000)" fill="#484D6D">
            <g id="Group-11" transform="translate(464.000000, 802.000000)">
                <path d="M227.807968,10 C230.902339,10.0237344 234.416511,10.7327991 237.365508,11.6295137 C237.496047,11.6762408 237.708914,11.6643736 237.67628,11.8601822 C237.141514,13.5416149 236.629742,15.2312062 236.099427,16.9141223 C233.381098,14.8351387 230.78515,13.2160088 227.230926,13.287212 C220.947249,13.4133009 216.701761,19.4158745 214.240802,24.5454679 C212.000128,29.352422 208.963611,39.56414 211.903707,44.4296884 C213.287718,46.7445323 216.341295,47.3156409 218.78742,46.6963219 C218.879391,46.3810996 218.968394,46.066619 219.075941,45.7565887 C220.357598,41.5170346 221.723066,37.2848976 223.047741,33.056469 C223.371864,32.2502417 223.374831,31.2808406 222.881601,30.5406245 C222.533744,30.0117928 221.993045,29.6691277 221.438254,29.3954406 C226.468459,29.3160787 231.508307,29.3361046 236.539996,29.3850568 C235.247956,29.8908958 234.166558,30.628145 233.572457,31.9157353 C233.295061,32.466818 233.162297,33.0750115 232.96723,33.6579873 C231.62327,37.8678734 230.295628,42.0822096 228.959086,46.2950625 C224.739558,49.5474146 218.148075,50.3180403 213.861052,49.8930465 C210.946915,49.6045254 208.34355,48.7300618 206.283109,47.167301 C200.178922,42.5390965 200.768573,33.1447313 203.025565,26.6022004 C204.60316,22.0073724 207.376374,18.1431182 211.066329,15.2749665 C216.178863,11.3009408 221.420453,10.0452437 227.807968,10 Z M200.381406,24.4431133 C200.037258,27.5753101 197.215091,29.6513269 194.636944,31.0212457 C193.434649,31.6754247 192.175244,32.2183487 190.935122,32.7946491 C191.266662,35.8267165 192.757478,38.606606 194.487863,41.072015 C195.285931,39.963916 195.809571,38.6021558 195.735401,37.2225948 C195.67829,36.5839916 195.249588,36.0855696 194.753391,35.7258453 C194.866129,35.7236202 195.090864,35.7191701 195.203602,35.7162033 C196.721861,35.7317789 198.24012,35.7058195 199.758379,35.7273287 C199.743545,36.6670619 199.500267,37.5830608 199.279241,38.4916426 C198.693298,40.3792677 197.55034,42.0399327 196.163362,43.4306192 C198.502682,45.8626517 201.469479,47.6293798 204.531956,49.0007821 C204.860529,49.1439301 205.193552,49.2818862 205.539926,49.3768237 C202.332076,49.4828867 199.11755,49.3797905 195.907475,49.4280009 C194.610243,48.613615 193.494727,47.5492762 192.362152,46.5279561 C188.772327,48.99114 184.270953,50.8327797 179.881575,49.580791 C179.287474,49.4235507 178.723782,49.181015 178.174183,48.9110364 C177.746223,48.6462497 177.324937,48.374046 176.928128,48.0677242 C176.637382,47.7814282 176.344411,47.4966156 176.079624,47.1880686 C175.550792,46.6110264 175.204419,45.9056703 174.902547,45.1921554 C173.989515,42.476052 174.398933,39.2622683 176.26579,37.0319781 C176.315484,36.9733838 176.366662,36.9155313 176.417839,36.8591621 C178.678539,34.1771769 182.114832,33.0572107 185.29524,31.8882924 C185.187693,28.6826674 185.658672,25.152178 187.705021,22.5213701 C189.847049,19.8408683 193.563705,18.620031 196.810123,19.6532183 C199.007037,20.3526409 200.439259,22.045199 200.381406,24.4431133 Z M157.857552,10.5340236 C163.929104,10.4101598 170.020681,10.5377321 176.100391,10.4702374 C176.250956,10.476171 176.403747,10.4828463 176.557278,10.491005 C184.734515,11.1681766 187.53443,16.5121212 184.669245,23.9372743 C181.475487,32.3896812 172.702666,34.9915629 164.417883,34.8884667 C163.698435,34.8966254 162.84103,34.8202303 162.126032,34.7586693 C162.008102,35.3334863 158.753525,45.5934148 158.418277,46.6525616 C158.106021,47.7450849 158.717923,49.0282249 159.817122,49.3775654 C155.122906,49.4420932 150.408664,49.4591523 145.721124,49.3708901 C145.899132,49.3011703 146.071948,49.2143915 146.23438,49.112037 C147.122194,48.5461203 147.860185,47.574494 148.300013,46.6132515 C151.654719,36.3763158 154.786916,26.2076163 157.960648,15.9165365 C158.269937,15.007213 158.544366,14.0860223 158.821761,13.1670566 C159.099898,12.1909802 158.678613,11.1125492 157.857552,10.5340236 Z M185.807754,35.0093637 C184.137447,35.7740558 182.591745,36.8754795 181.469554,38.342561 C180.022498,40.0751709 179.772545,42.9232968 181.327147,44.6618403 C182.266881,45.7076365 183.731737,46.0703275 185.092014,46.0584604 C186.944037,45.9294046 188.70854,45.2418493 190.329154,44.368869 C189.077907,42.7712484 188.144849,40.8858484 187.277802,39.105028 C186.719302,37.7655188 186.200113,36.4074671 185.807754,35.0093637 Z M168.701198,13.9043059 C166.823956,19.819359 164.971191,25.7633384 163.115459,31.6798749 C164.898505,32.2613672 167.699162,31.6338895 169.256731,30.6051524 C171.775542,29.1217535 173.321244,26.4471853 174.272844,23.7540746 C175.106514,21.23823 176.641832,16.1983823 173.877518,14.313724 C172.512791,13.3346807 170.70527,13.4911793 169.116549,13.4896959 C168.776851,13.3302305 168.753858,13.7018219 168.701198,13.9043059 Z M193.306335,21.8115637 C190.704454,23.6153768 190.154854,27.1948183 190.454501,30.1326898 C192.434838,28.9652549 194.122205,27.2764052 195.279998,25.2901341 C195.74801,24.4060284 196.144077,23.3943503 195.914892,22.3804472 C195.673098,21.2041119 194.143714,21.2997911 193.306335,21.8115637 Z" id="pg-logo"></path>
            </g>
        </g>
    </g>
</svg>