<?xml version="1.0" encoding="UTF-8"?>
<svg width="67px" height="70px" viewBox="0 0 67 70" version="1.1" xmlns="http://www.w3.org/2000/svg" xmlns:xlink="http://www.w3.org/1999/xlink">
    <title>rhinegeist-logo</title>
    <g id="Page-1" stroke="none" stroke-width="1" fill="none" fill-rule="evenodd">
        <g id="D-Hearty-Home_v1.0" transform="translate(-737.000000, -902.000000)" fill="#484D6D">
            <g id="Group-2" transform="translate(530.000000, 902.000000)">
                <path d="M244.833348,62.5280105 C244.440321,65.0146681 243.916072,67.4462091 243.427713,69.9501707 L241.876436,69.9501707 C241.481968,68.5374864 241.085737,67.1187137 240.689666,65.699941 L240.549311,65.7156428 L240.549311,65.7156428 C240.173589,67.1206364 239.797706,68.5257902 239.403558,70 L237.877115,70 C237.377381,67.5465085 236.88037,65.1071167 236.363972,62.5723922 L237.882723,62.5723922 C238.144367,63.9115342 238.412099,65.281439 238.679671,66.6513438 C238.727898,66.656471 238.775965,66.6617583 238.824032,66.6668854 C239.186616,65.306594 239.54904,63.9463026 239.920437,62.5525246 L241.330077,62.5525246 C241.704357,63.8902246 242.088892,65.2642952 242.524858,66.822622 C242.949448,65.3229367 243.02251,63.9209874 243.408487,62.5280105 L244.833348,62.5280105 Z M229.893214,60.4867723 C231.464359,60.98859 232.997851,61.4785513 234.634847,62.0015185 C234.498017,62.4357222 234.376568,62.8213784 234.228843,63.2903505 C233.077642,62.9367388 231.99774,62.6050777 230.848783,62.2521069 C230.682792,62.7156314 230.534746,63.1293266 230.36491,63.6040667 C231.021823,63.8397544 231.634515,64.0595801 232.289186,64.2944667 C232.139858,64.7320351 232.013602,65.1021497 231.863153,65.5435635 C231.201754,65.3436055 230.599797,65.1620731 229.886805,64.9467336 C229.669383,65.5203312 229.450198,66.098415 229.204737,66.7463559 C230.407049,67.1397029 231.538061,67.5096573 232.768572,67.9121369 L232.684501,68.1629522 L232.684501,68.1629522 L232.516775,68.6633754 C232.459451,68.8343857 232.399707,69.012579 232.334529,69.2068972 C230.640173,68.6650238 229.006061,68.1423771 227.256748,67.5830393 C228.154637,65.1663991 229.00574,62.875694 229.893214,60.4867723 Z M251.538671,60.3080117 C251.71011,60.7383701 251.852708,61.0959873 252.036483,61.5566278 C251.436289,61.7687628 250.895217,61.9631131 250.351901,62.1508942 C249.824928,62.3332277 249.295713,62.5091523 248.688789,62.7143977 C248.881857,63.230315 249.037914,63.6468943 249.203424,64.0892694 C249.871553,63.8779355 250.47303,63.6875909 251.135551,63.4780195 L251.256692,63.7809206 L251.256692,63.7809206 L251.494407,64.3753071 C251.535166,64.4772288 251.577045,64.5819544 251.620866,64.6915468 C250.960748,64.9496657 250.353664,65.1872761 249.695949,65.4444337 C249.913532,66.0335729 250.11397,66.5768883 250.35142,67.2201828 C251.521367,66.8329243 252.647733,66.4602461 253.863504,66.0579267 L254.07933,66.5297636 C254.188269,66.7679251 254.301937,67.0164114 254.434698,67.3065429 C252.719193,67.8801404 251.089407,68.4250581 249.35147,69.0061861 C248.485466,66.6102146 247.648622,64.2951557 246.782298,61.8982228 C248.408879,61.3545869 249.937084,60.8434762 251.538671,60.3080117 Z M223.168231,56.5082483 C223.348642,56.5970117 223.517789,56.6591782 223.663913,56.7559527 C224.285897,57.1674048 224.902274,57.5873487 225.51769,58.0084142 C225.715405,58.1438025 225.911518,58.2833565 226.095133,58.4370102 C226.895125,59.1072221 227.174554,59.9249991 226.899772,60.7658483 C226.573398,61.7651578 225.73303,62.4188668 224.709687,62.4640496 C224.499795,62.4735027 224.289262,62.4654916 223.998137,62.4654916 C223.815483,63.5687857 223.643404,64.6083111 223.450656,65.7732909 C222.926776,65.4419502 222.509716,65.1780633 222.033373,64.8766842 C222.200966,63.8184128 222.366316,62.7745613 222.542561,61.6621346 C222.261851,61.4567289 221.972008,61.2447542 221.648839,61.0079449 C221.025893,61.8042522 220.440919,62.5521721 219.813006,63.3552087 C219.392902,63.0506252 219.037047,62.7926665 218.62207,62.4919283 C220.155402,60.4739224 221.647397,58.5100717 223.168231,56.5082483 Z M259.395997,57.5939339 C260.049385,58.2279354 260.439688,59.2088193 259.951168,60.139233 C259.903582,60.2299191 259.88051,60.333423 259.818504,60.5090272 C260.832234,60.9904967 261.832504,61.465397 262.978738,62.0099942 C262.484932,62.38812 262.099596,62.6832504 261.663469,63.0171547 C260.644613,62.5438565 259.63553,62.0750447 258.568927,61.5794756 C258.282128,61.7751076 257.982511,61.9793917 257.652132,62.2049854 C258.254569,62.9932815 258.819034,63.731588 259.445986,64.5519287 C259.020595,64.8448159 258.673071,65.0838683 258.33404,65.3173129 C257.735287,64.8792638 254.271271,60.3390308 253.689181,59.2110624 C254.745691,58.5283532 255.778166,57.7722618 256.893477,57.169664 C257.765409,56.698609 258.663618,56.8831856 259.395997,57.5939339 Z M256.873449,58.7388859 C256.482505,59.0024524 256.098291,59.2756322 255.662325,59.5779726 C256.072656,60.111194 256.436682,60.5840115 256.836758,61.1039344 C257.511937,60.4893198 258.426649,60.2734997 258.726265,59.3857053 C258.304559,58.2409135 257.842957,58.0848565 256.873449,58.7388859 Z M223.595017,58.3653906 C223.184254,58.932419 222.838172,59.4098829 222.463892,59.9262809 C223.068893,60.3143405 223.562652,60.6772451 224.098277,60.9613201 C224.608907,61.232417 225.018436,61.078443 225.323821,60.5998575 C225.612222,60.1477088 225.564635,59.8017878 225.095023,59.4308721 C224.63983,59.0713322 224.149548,58.7561739 223.595017,58.3653906 Z M218.271903,50.8908696 C218.475386,51.131364 218.67951,51.3614439 218.871136,51.6014576 C219.270251,52.1010322 219.669206,52.6009273 220.056945,53.1093142 C221.21103,54.6221858 220.564691,56.1949326 218.665891,56.5046433 C218.590586,56.5169804 218.516884,56.5397321 218.405529,56.5663291 C218.352175,57.3945206 217.941844,58.008975 217.232057,58.4322836 C216.253096,59.0161354 215.289997,58.9352229 214.439855,58.1735238 C214.222593,57.9790133 214.023436,57.7591877 213.842384,57.5302293 C213.300831,56.8451167 212.772416,56.1497498 212.198018,55.405515 C214.233969,53.8921627 216.213361,52.4209971 218.271903,50.8908696 Z M263.241183,50.1870109 C263.424798,50.5555233 263.56275,50.8033879 263.675066,51.0624682 C264.15221,52.1633589 264.630956,53.2636088 265.088872,54.3724466 C265.247333,54.7561801 265.462992,55.0638079 265.815643,55.2934071 C266.262023,55.5843717 266.689818,55.9048172 267.119376,56.2207766 C267.328787,56.3749109 267.523618,56.5482719 267.763952,56.7443846 C267.469142,57.1226706 267.211824,57.4528898 266.890257,57.8654634 C266.341654,57.4714756 265.797217,57.1428587 265.328726,56.7285226 C264.735261,56.203793 264.046623,56.0206583 263.293095,55.92837 C262.128917,55.7859319 260.968583,55.6092062 259.807288,55.4424143 C259.652673,55.4203036 259.501904,55.371756 259.181939,55.2953298 C259.406219,55.0123123 259.600505,54.7671906 259.786808,54.5320707 L260.155292,54.0669017 L260.155292,54.0669017 C261.28967,54.2252018 262.39008,54.378535 263.614182,54.5494927 C263.143447,53.4568374 262.716774,52.4674618 262.259178,51.4055051 C262.553827,51.0397165 262.860654,50.6591874 263.241183,50.1870109 Z M215.813765,54.5499253 C215.268848,54.9483994 214.783052,55.3034531 214.207372,55.7243583 C214.58005,56.1994189 214.879346,56.6355453 215.23456,57.0197595 C215.652581,57.4719082 216.096238,57.4773558 216.573542,57.104998 C216.999254,56.7728562 217.099874,56.3384923 216.787599,55.8437243 C216.509453,55.4034321 216.161929,55.0068807 215.813765,54.5499253 Z M218.062492,52.8284437 C217.657128,53.1540164 217.314893,53.4291189 216.925711,53.7417135 C217.287334,54.1783687 217.580702,54.5848539 217.929187,54.9367031 C218.224477,55.2348777 218.613178,55.1970651 218.922087,54.9161946 C219.223947,54.6418932 219.26929,54.3741609 219.007005,54.0066099 C218.721328,53.6061651 218.392551,53.2365311 218.062492,52.8284437 Z M240.557002,20.0082019 C250.124385,20.0301991 257.83751,27.8423416 257.799676,37.471891 C257.762045,46.9803121 249.943333,54.6562652 240.326922,54.6259131 C230.858396,54.5955408 223.137228,46.7755474 223.16551,37.2440542 C223.194107,27.7034284 230.980806,19.9862981 240.557002,20.0082019 Z M238.799358,21.0346357 C238.769717,21.3278434 238.740396,21.534691 238.729501,21.7425 C238.641378,23.4315686 238.339518,25.0829848 237.772971,26.6743175 C236.054581,31.5010288 232.941292,35.0507646 228.114902,36.9304983 C226.887755,37.4084428 225.551978,37.6069589 224.105326,37.9746701 C224.553469,44.0391025 227.305937,48.8009236 232.744218,51.6857348 C238.754015,54.8736875 244.70565,54.355527 250.250961,50.4202953 C254.599567,47.3339238 256.962853,41.8861889 256.726685,37.8136462 C256.601231,37.7969831 256.472091,37.7756734 256.34183,37.7628556 C253.984472,37.5311735 251.808166,36.7622643 249.860017,35.4300119 C245.168694,32.2218711 242.726899,27.7069533 242.236617,22.0876199 C242.207457,21.7519531 242.180699,21.415966 242.148495,21.0266246 C240.982553,20.9490768 239.904414,20.943469 238.799358,21.0346357 Z M240.678771,26.6647041 C240.772501,26.8548886 240.894271,27.0295314 240.948426,27.2232407 C241.908641,30.6577763 243.36747,33.8772929 245.083295,36.9944272 C245.633821,37.9945378 246.102312,39.0488037 246.513764,40.1149261 C247.529897,42.7461046 246.413946,45.3594984 244.707893,46.7700998 C244.182363,47.204624 243.854226,47.6671872 243.874735,48.3941179 C243.893801,49.0793908 243.635042,49.2530723 242.710236,49.3985546 C242.321375,49.092529 242.80717,48.4864063 242.308237,48.1840659 C241.843591,48.5607496 242.230529,49.1125569 241.96536,49.5967501 C241.630174,49.8084044 241.213755,49.8787422 240.773142,49.7545696 C240.671474,49.5977843 240.652835,49.4241134 240.650747,49.2473242 L240.651717,48.9815227 C240.64902,48.7609407 240.620246,48.5462422 240.435553,48.3643165 C239.913707,48.7440445 240.330447,49.3192443 239.986448,49.8135316 C239.645655,49.777161 239.242854,49.7345417 238.90174,49.6981712 C238.54925,49.1894638 238.95894,48.5992031 238.518487,48.1755741 C237.994238,48.4684613 238.481155,49.0672138 238.0242,49.4541519 C237.748617,49.3522502 237.415353,49.2291991 237.042355,49.0912473 C236.991244,48.8372942 236.886618,48.6020871 236.910011,48.3806592 C236.983713,47.681447 236.640997,47.2264143 236.137096,46.8144815 C235.114875,45.9794004 234.444182,44.9068691 234.101786,43.6342195 C233.764517,42.3807967 233.822037,41.133943 234.353656,39.9542226 C234.944077,38.6439207 235.563018,37.340989 236.260307,36.0853231 C237.818634,33.2788608 239.145759,30.3801102 240.038841,27.2906945 C240.117671,27.0176749 240.155323,26.6908204 240.678771,26.6647041 Z M239.992377,45.4498641 C239.796264,45.5580145 239.540709,45.6241865 239.423746,45.788575 C239.336745,45.9109852 239.367668,46.1985851 239.457072,46.3450288 C239.579162,46.5448266 239.955846,46.4879475 240.060471,46.2556245 C240.149715,46.0574289 240.149395,45.8186969 240.18865,45.5979099 L239.992377,45.4498641 L239.992377,45.4498641 Z M240.710816,45.5477602 C240.670119,46.2242208 240.789485,46.4914724 241.111373,46.436516 C241.256855,46.4118417 241.448321,46.2533813 241.491902,46.1155897 C241.592842,45.7957851 241.335044,45.6136118 240.710816,45.5477602 Z M243.511189,41.2283142 C242.359348,41.2183804 241.430216,42.0851856 241.400575,43.1976124 C241.371414,44.2912931 242.286767,45.1858169 243.451266,45.2015188 C244.60471,45.2170604 245.560279,44.3416031 245.575019,43.2559335 C245.589439,42.1765126 244.634511,41.238248 243.511189,41.2283142 Z M237.403657,41.2486625 C236.257263,41.2098886 235.299612,42.0557046 235.242572,43.1575567 C235.187456,44.2220769 236.121715,45.1611426 237.267788,45.1935076 C238.440459,45.2266737 239.385613,44.393355 239.418939,43.2971108 C239.452426,42.1894907 238.565433,41.2879171 237.403657,41.2486625 Z M224.313776,34.6942689 C224.243278,35.4553271 224.183355,36.1031078 224.116862,36.8207457 C226.420065,36.6890425 228.397374,35.9928745 230.223273,34.7763029 C228.259743,34.6631857 226.30839,34.6449203 224.313776,34.6942689 Z M256.592098,34.6918655 L250.713203,34.6918655 C252.537981,35.9730069 254.531473,36.7093908 256.786448,36.8007178 C256.846051,36.0258804 256.741105,35.364641 256.592098,34.6918655 Z M255.98229,32.1236546 L247.647821,32.1236546 L247.541754,32.2633688 L247.541754,32.2633688 C248.075296,32.7629435 248.608517,33.2623579 249.110335,33.7326117 L251.587379,33.7326117 C252.387852,33.7324515 253.188325,33.7430262 253.988478,33.7294073 C254.772928,33.7159486 255.563468,33.7901317 256.391018,33.6765338 C256.360416,33.4655204 256.35609,33.333657 256.32052,33.2109264 C256.217337,32.8552318 256.101496,32.5033825 255.98229,32.1236546 Z M233.53652,32.1366326 L224.946656,32.1366326 C224.809986,32.6536715 224.683731,33.1312956 224.556354,33.6126049 C224.715775,33.6712464 224.787555,33.7204348 224.859495,33.7207553 C227.073774,33.7281255 229.288053,33.7346946 231.502171,33.7270039 C231.675052,33.726363 231.886866,33.6672408 232.013282,33.5576485 C232.492989,33.1417101 232.944978,32.6940477 233.53652,32.1366326 Z M235.432596,29.5474324 L226.060365,29.5474324 C225.835572,30.0405981 225.609338,30.5371286 225.350898,31.104157 L234.374165,31.104157 C234.695572,30.6314998 235.031559,30.1372125 235.432596,29.5474324 Z M254.893416,29.55288 L245.507085,29.55288 C245.916774,30.1465054 246.254203,30.6358258 246.569522,31.0927812 L255.612336,31.0927812 C255.353095,30.5376092 255.13343,30.0668747 254.893416,29.55288 Z M236.665511,26.9684865 L227.799904,26.9684865 C227.453662,27.4597296 227.11383,27.9415195 226.709908,28.5146364 L235.990012,28.5146364 C236.206633,28.0189071 236.416364,27.5390398 236.665511,26.9684865 Z M249.947936,26.8939837 L249.333627,26.8939891 C247.065597,26.8997695 244.690074,26.9683133 244.309099,27.0796811 C244.528604,27.5633937 244.744424,28.0390951 244.952874,28.4987743 L254.275437,28.4987743 C253.841874,27.9086738 253.485218,27.423359 253.156601,26.976017 C252.480448,26.9233816 251.266322,26.8974086 249.947936,26.8939837 Z M230.900054,24.3639049 C230.722207,24.3645458 230.502381,24.388419 230.374363,24.4914423 C229.842744,24.9182758 229.339004,25.3797174 228.695709,25.941138 L237.029056,25.941138 C237.156914,25.4354749 237.281888,24.9410274 237.411027,24.430077 C237.220522,24.3914633 237.144256,24.3626232 237.06799,24.3624629 C235.012012,24.3594187 232.956033,24.3562143 230.900054,24.3639049 Z M250.54513,24.40348 L243.505902,24.40348 C243.653307,24.945033 243.783408,25.4228173 243.922321,25.9321655 L252.238204,25.9321655 C251.572478,25.3310097 251.027721,24.8391257 250.54513,24.40348 Z M237.795242,21.2496547 C235.94579,21.4113195 232.978945,22.5447355 232.176709,23.371485 L237.624444,23.371485 C237.685169,22.6163551 237.739644,21.9414967 237.795242,21.2496547 Z M243.136268,21.2003061 C243.200357,21.9761048 243.256115,22.6530461 243.313314,23.3468107 L248.74038,23.3468107 C247.053074,22.2053836 245.22333,21.5205914 243.136268,21.2003061 Z M222.628954,20.269572 C222.585854,20.4128111 222.555892,20.5124697 222.516477,20.6435319 L221.779452,20.6435319 C221.584301,21.2810584 222.036129,21.6096753 222.373078,21.9379718 L222.529617,22.0918057 C222.84761,22.4012216 223.20508,22.695116 223.781676,22.5053207 C223.766455,22.254572 223.752676,22.0304203 223.736974,21.7706992 C223.840638,21.7223119 223.953435,21.6695986 224.063829,21.6181671 C224.402059,22.207787 224.413114,22.5399288 224.121509,22.8728717 C223.817887,23.2195938 223.413164,23.2796774 222.884028,23.0021715 C222.234485,22.6613777 221.707352,22.1707755 221.334514,21.5369342 C221.050759,21.0546636 221.072549,20.6755765 221.348613,20.3485618 C221.646467,19.9960717 221.929741,19.9705962 222.628954,20.269572 Z M258.440748,19.4090154 C258.720497,19.7591022 259.04623,20.1665487 259.410256,20.6219019 C259.439417,20.5871335 259.358825,20.683107 259.239779,20.8247439 C258.964517,20.594664 258.708961,20.3809268 258.412068,20.1329019 C258.212751,20.304821 258.020324,20.4708118 257.796973,20.6633996 C257.941494,20.8609542 258.061181,21.0242213 258.199293,21.2129637 C258.122706,21.3127825 258.04676,21.4118002 257.935085,21.5572825 C257.726475,21.4084355 257.545263,21.2789755 257.326078,21.122598 C257.081899,21.3603687 256.855664,21.5809954 256.582965,21.8464846 C256.859189,22.1642064 257.093916,22.4338613 257.378151,22.7607158 C257.238276,22.890336 257.162331,22.9605136 257.020854,23.0915758 C256.650419,22.672433 256.289277,22.2637047 255.930218,21.8573797 C256.731331,21.0761334 257.56449,20.2636437 258.440748,19.4090154 Z M212.398649,13.3846387 C213.332587,13.7273553 213.968512,14.39244 214.130977,15.4058492 C214.192343,15.7874998 214.140911,16.1870954 214.140911,16.631233 C215.258786,16.9007277 216.409986,17.1783938 217.698017,17.4890658 C217.288007,17.9931267 216.976534,18.3760591 216.617154,18.8177933 C215.443202,18.559354 214.280305,18.303318 213.077032,18.0384697 C212.799366,18.3750978 212.580502,18.6404267 212.317576,18.95927 C213.132629,19.6485484 213.933743,20.3258101 214.771869,21.0346357 C214.428511,21.4451265 214.142834,21.7867215 213.783935,22.2156379 C211.645762,20.4390877 209.549567,18.6976262 207.38672,16.9007277 C208.288934,15.8589592 209.090369,14.8641359 209.96871,13.9423743 C210.625623,13.2529356 211.492589,13.0520162 212.398649,13.3846387 Z M224.270356,17.7156208 C225.045994,18.6792006 225.78334,19.5951943 226.583011,20.5885755 C226.458839,20.7143504 226.371678,20.8024729 226.194311,20.9820827 C225.398164,19.992707 224.677322,19.0967412 223.929081,18.1668081 C224.022331,18.0434366 224.109973,17.9275955 224.270356,17.7156208 Z M269.857262,12.1986697 C271.199769,13.6895427 272.421628,15.2156647 273.735936,16.7629361 C273.356688,17.087227 273.022464,17.3729043 272.625432,17.7120959 C272.133067,17.1439459 271.685725,16.6275479 271.179902,16.0438563 C269.458308,17.4868227 267.754659,18.9147281 265.98628,20.3967888 C265.646127,20.0180222 265.334013,19.6708194 264.957169,19.2513562 C266.694625,17.7755441 268.393147,16.3325777 270.149829,14.8402627 C269.655061,14.2328582 269.223581,13.7033219 268.743554,13.1143429 C269.12905,12.797262 269.449335,12.534016 269.857262,12.1986697 Z M254.626965,16.3596554 C254.906554,16.55 255.108275,16.6767363 255.298459,16.8190141 C255.714878,17.1301667 255.816299,17.5653318 255.674502,18.0320608 C255.459643,18.738483 255.044186,19.3263404 254.430052,19.7440412 C253.818962,20.1594989 253.413278,20.0505474 252.583644,19.2763509 C253.244563,18.332799 253.91077,17.382037 254.626965,16.3596554 Z M254.762995,17.1348132 C254.279763,17.8260143 253.813835,18.4923808 253.348067,19.1589076 C253.366172,19.2276432 253.384438,19.2963788 253.402543,19.3651143 C253.639512,19.3474898 253.929355,19.4107778 254.103998,19.2971799 C254.625844,18.9576678 254.968881,18.454408 255.135513,17.8458819 C255.224276,17.5223921 255.102987,17.3003233 254.762995,17.1348132 Z M228.116344,15.2408197 C228.726792,16.2829087 229.313688,17.2843011 229.892253,18.2719143 C229.746931,18.6066197 229.551299,18.6088628 229.312246,18.4355018 C228.817639,18.0766027 228.32223,17.7185048 227.714184,17.4315458 C228.017967,17.9623639 228.321749,18.493182 228.677444,19.1150066 C228.489663,19.2096982 228.379269,19.2652955 228.20703,19.3521363 C227.604111,18.3178982 227.016735,17.3105776 226.410612,16.2710522 C226.5601,16.1697914 226.682991,16.0866358 226.827191,15.9888999 C227.399507,16.3982691 227.952756,16.7938591 228.505685,17.1892889 L228.587078,17.121034 L228.587078,17.121034 C228.294191,16.6033542 228.001304,16.0855142 227.688228,15.5319445 C227.825059,15.438855 227.925839,15.3702797 228.116344,15.2408197 Z M251.161186,14.4078214 C251.236651,14.5728509 251.399117,14.7529413 251.373962,14.9006667 C251.184579,15.9986734 250.958184,17.090111 250.733071,18.2365051 C250.533273,18.1623219 250.418073,18.1193822 250.274033,18.066028 C250.295663,17.7616047 250.316011,17.4767286 250.338763,17.1578853 C250.145054,17.0736081 249.956632,16.991574 249.755231,16.9039322 C249.555754,17.1215147 249.377907,17.3152241 249.183236,17.5276795 C249.06355,17.4909884 248.943062,17.4541372 248.68959,17.3764292 C249.432863,16.3189588 250.209784,15.3970369 250.92646,14.4305731 C251.004649,14.4228824 251.082837,14.4153519 251.161186,14.4078214 Z M210.812924,15.1651945 C210.380483,15.6251941 209.996909,16.1310175 209.551971,16.6645593 C210.093684,17.1208738 210.59406,17.54242 211.172944,18.0299779 C211.643359,17.4466067 212.072435,16.9721871 212.433417,16.4506619 C212.811543,15.9043022 212.712846,15.437413 212.222083,15.0520772 C211.72347,14.6603325 211.274686,14.6741117 210.812924,15.1651945 Z M232.628858,14.2072225 C232.538012,14.310406 232.452933,14.4068601 232.346545,14.5275079 C232.142742,14.4034954 231.948232,14.285251 231.710781,14.1408903 C231.610001,14.2833283 231.448497,14.4057385 231.45106,14.5244636 C231.469486,15.394954 231.690433,16.1859739 232.545061,16.8630754 C232.712014,16.5141101 232.820484,16.2875551 232.928955,16.0608399 C233.193804,15.9772036 233.367325,16.068851 233.351303,16.3490807 C233.330634,16.7100626 233.179864,17.0180108 232.829457,17.1854436 C232.475845,17.3544786 232.129123,17.3035278 231.867479,17.0372375 C231.181405,16.3393071 230.864645,15.477629 230.89685,14.5041153 C230.910308,14.0992324 231.141189,13.7933671 231.546553,13.6852167 C232.0261,13.5570385 232.357761,13.7869582 232.628858,14.2072225 Z M245.206507,12.670686 C245.397813,12.6865481 245.542013,12.6985648 245.744054,12.7153882 C245.790198,13.4037053 245.83442,14.0599778 245.878481,14.7162503 C245.917575,14.7367588 245.95683,14.7572673 245.996085,14.7777758 C246.31653,14.2227641 246.636976,13.6677524 246.973924,13.084221 C247.139114,13.1047295 247.284917,13.1229949 247.536787,13.1543986 C247.256397,14.3536661 246.988665,15.4997397 246.715325,16.6695262 C246.517129,16.6217799 246.419714,16.5982271 246.23001,16.5525636 C246.334635,16.0465801 246.433813,15.5663924 246.533151,15.0860445 C246.508797,15.074188 246.484444,15.0621713 246.46025,15.0501546 C246.187871,15.5141598 245.915653,15.9783252 245.588478,16.53558 C245.308408,15.9991541 245.522306,15.4734632 245.277165,14.8660586 C245.134887,15.3656332 245.026897,15.7447203 244.903045,16.1789241 C244.754518,16.1524873 244.61945,16.1282937 244.417409,16.0924038 C244.685462,14.9306284 244.941338,13.8210856 245.206507,12.670686 Z M218.579018,6.34140543 C220.251424,8.56401587 221.86679,10.7110012 223.540381,12.9355343 C223.151937,13.2426814 222.790474,13.5285188 222.368768,13.8619424 C221.525836,12.979916 220.960089,11.9466393 220.141671,11.0610879 C219.33527,11.6678516 218.554504,12.2552283 217.728876,12.8764121 C218.440105,13.8308592 219.11977,14.7428473 219.851828,15.7253334 C219.451271,16.030718 219.08372,16.3109477 218.628046,16.6584709 C216.954199,14.4395455 215.327457,12.2831071 213.643355,10.0507231 C214.0492,9.73957043 214.399447,9.47119727 214.823236,9.14626547 C215.602239,9.89626831 216.097167,10.8521574 216.850054,11.6755423 C217.640433,11.0835191 218.418956,10.5004684 219.268457,9.86406353 C218.646793,9.02401548 218.051885,8.22017778 217.42926,7.3785275 C217.60214,6.86693616 218.129273,6.73555347 218.579018,6.34140543 Z M250.527025,15.7964723 C250.393879,15.9977121 250.260895,16.1989519 250.098749,16.4447337 C250.280922,16.4907176 250.376575,16.5149113 250.50219,16.5466354 C250.565158,16.2990912 250.621396,16.0776633 250.677634,15.8563956 L250.527025,15.7964723 L250.527025,15.7964723 Z M236.490868,12.5072588 C236.285783,13.7486649 235.865038,14.9322306 236.403386,16.1298959 C236.173947,16.1885374 236.073167,16.2141731 235.91695,16.2540686 C235.730771,15.6753439 235.604035,15.0820389 235.350723,14.5489777 C235.091963,14.0047009 234.70903,13.5197066 234.323855,12.9207938 C234.771838,12.8565445 234.771838,12.8565445 235.633676,13.8399919 C235.787971,13.4061086 235.937298,12.9658164 236.110339,12.5349773 C236.126041,12.4962034 236.294915,12.518955 236.490868,12.5072588 Z M264.723244,8.03031378 C266.009512,8.31390811 267.241946,9.6999954 267.413545,11.0138222 C267.423158,11.0865634 267.385185,11.165393 267.360831,11.2815545 C267.14421,11.3464447 266.921821,11.4279981 266.692542,11.4765456 C266.488578,11.5196456 266.276764,11.5258942 266.013838,11.5544139 C265.931644,11.3152013 265.857621,11.0953756 265.780714,10.8765113 C265.576911,10.2969855 265.20199,9.86374309 264.659155,9.57694431 C264.352809,9.4151193 264.048225,9.37971006 263.767996,9.62917693 C263.491932,9.87511891 263.457163,10.1944429 263.589668,10.5086398 C263.744443,10.8753897 263.95113,11.2201892 264.134265,11.5749224 C264.354091,12.0006343 264.601795,12.4148102 264.785731,12.8555831 C265.147514,13.7223884 265.00844,14.5230216 264.388538,15.2385766 C263.750852,15.9743196 262.957108,16.2138526 262.014037,16.0166184 C260.465323,15.6928082 259.168801,14.0362648 259.245067,12.3651412 C259.698177,12.2827867 260.109789,12.2081228 260.602795,12.1185583 C260.684989,12.4425288 260.749238,12.7192335 260.826145,12.9922531 C261.017131,13.6693546 261.405831,14.1835095 262.065308,14.4690265 C262.439268,14.6310118 262.797686,14.6258846 263.104193,14.3317156 C263.412942,14.0354637 263.442263,13.6770453 263.26057,13.3043671 C263.07375,12.9219153 262.867063,12.5492372 262.674315,12.1696694 C262.46971,11.7667091 262.241073,11.3722406 262.076684,10.9530978 C261.74326,10.1027955 261.912776,9.33821236 262.531877,8.6612711 C263.138,7.99842945 263.892969,7.84717914 264.723244,8.03031378 Z M240.424017,13.1100169 C240.652815,13.6006191 240.818005,13.9545512 240.961564,14.2624994 C240.90805,14.6491169 240.737573,14.912363 240.402547,14.8617326 C240.192815,14.8301687 240.012885,14.6000888 239.785689,14.4344184 C240.007277,13.9747393 240.187208,13.6010997 240.424017,13.1100169 Z M259.851029,4.85021199 C260.307344,5.08285547 260.718315,5.29242687 261.23263,5.55455134 C259.879228,7.9713518 258.558192,10.3303118 257.181718,12.7882895 C256.981183,12.6754927 256.799029,12.5730527 256.623073,12.4740991 L256.101621,12.1808273 C256.013751,12.1314018 255.924385,12.0811303 255.832001,12.029154 C257.174027,9.63206094 258.484489,7.29104586 259.851029,4.85021199 Z M222.796867,4.09764558 C224.049409,6.55177794 225.275594,8.95463902 226.547442,11.4470646 C226.077188,11.6995757 225.671344,11.9174787 225.181703,12.1802441 C223.918507,9.70544298 222.690479,7.29969789 221.410459,4.79221134 C221.912277,4.54082179 222.307547,4.34278643 222.796867,4.09764558 Z M252.274414,1.78963639 C252.905051,1.79540441 256.321802,2.9972355 257.252376,3.53478294 C257.107054,3.93229566 256.956925,4.34310688 256.779238,4.8292228 C256.13322,4.59193286 255.566031,4.38140012 254.99724,4.1751934 C254.451201,3.97715804 253.903399,3.78376914 253.284138,3.56250148 C253.092191,4.07233038 252.917068,4.53729689 252.707496,5.09391084 C253.342299,5.34017326 253.950184,5.57602119 254.574893,5.81859849 C254.660612,6.35662659 254.426366,6.75878578 254.149181,7.20869135 C253.513898,6.98646235 252.893195,6.7695207 252.19959,6.52694341 C251.951245,7.19058618 251.712994,7.82715129 251.441416,8.55247983 C252.676413,9.013601 253.856775,9.45421366 255.10459,9.92014151 C254.914405,10.3992076 254.761232,10.7851843 254.566081,11.2772285 C252.865957,10.6525198 251.210215,10.0441539 249.468593,9.40422415 C250.443549,6.75830511 251.362586,4.2637966 252.274414,1.78963639 Z M231.606637,0.878609643 C232.423613,3.53718628 233.211909,6.10219281 234.027282,8.7554821 C233.586349,8.91602533 233.201174,9.05606004 232.783473,9.20811146 C231.252224,7.91271026 229.7535,6.64454693 228.254776,5.37622338 C228.219046,5.39625123 228.183477,5.41611886 228.147907,5.4361467 C228.614636,6.97700921 229.081365,8.51803193 229.577415,10.1559894 C229.114051,10.3070795 228.697792,10.4429484 228.172261,10.6142266 C227.296644,8.00692126 226.559459,5.40650549 225.721814,2.74424373 C226.147686,2.58418117 226.534144,2.4388591 226.985972,2.26918318 C228.493348,3.57451819 229.998,4.87777031 231.502812,6.1808622 L231.616731,6.12430356 C231.143753,4.56245187 230.670936,3.0007604 230.171681,1.35174752 C230.661482,1.19024296 231.096648,1.04668334 231.606637,0.878609643 Z M248.800464,2.00048957 C248.83347,2.06746269 248.828663,2.1533421 248.857183,2.32526115 C248.497643,2.53707567 248.118235,2.76042623 247.683711,3.01646224 L247.547877,2.8349148 L247.547877,2.8349148 L247.301985,2.50666839 C247.262275,2.45480127 247.22267,2.40401065 247.182374,2.35378081 C246.563433,1.58198766 245.511891,1.50940674 244.78464,2.18474577 C243.768988,3.12797729 243.484272,5.34802417 244.230429,6.50707579 C244.618649,7.10999412 245.247524,7.37916839 245.95715,7.24570282 C246.588749,7.12713796 246.879072,6.78890766 247.069737,5.89053852 C246.655401,5.80994646 246.29522,5.7399291 245.83426,5.65020434 C245.885691,5.20975191 245.933437,4.8024656 245.97878,4.41456624 C246.630086,4.25402301 247.933979,4.38524547 248.818569,4.69751967 C248.799342,5.78895727 248.621816,6.85203544 247.894244,7.73870832 C246.551096,9.37650561 243.833878,9.00927499 242.75654,7.06112617 C241.758673,5.25621652 242.263695,2.36131128 243.812248,1.01079344 C245.358398,-0.33748128 247.892962,0.164016031 248.800464,2.00048957 Z M240.307855,0.0335946852 C240.334292,0.427742731 240.36185,0.838553947 240.396459,1.35447131 C239.159378,1.46037857 237.9811,1.56099848 236.703323,1.67043064 C236.748186,2.21983456 236.789844,2.7314259 236.836308,3.30085768 C237.551383,3.26320532 238.205091,3.22875742 238.954133,3.18934262 C238.997393,3.6695303 239.036167,4.09956825 239.080869,4.59818155 C238.339999,4.68245873 237.689174,4.75664188 236.93853,4.84220085 C236.991724,5.54589931 237.042835,6.2209179 237.099554,6.97044007 C238.397359,6.88247777 239.631715,6.79884147 240.949708,6.70943716 C240.998095,7.2146196 241.039272,7.64337576 241.089903,8.17018827 C239.243175,8.30221185 237.503636,8.42670495 235.652262,8.55920919 C235.446055,5.78863683 235.247539,3.12044682 235.050465,0.473406224 C235.711224,0.191574349 239.230998,-0.100511784 240.307855,0.0335946852 Z" id="rhinegeist-logo"></path>
            </g>
        </g>
    </g>
</svg>