<?xml version="1.0" encoding="UTF-8"?>
<svg width="128px" height="20px" viewBox="0 0 128 20" version="1.1" xmlns="http://www.w3.org/2000/svg" xmlns:xlink="http://www.w3.org/1999/xlink">
    <title>Combined Shape</title>
    <g id="Page-1" stroke="none" stroke-width="1" fill="none" fill-rule="evenodd">
        <g id="D-Hearty-Home_v1.0" transform="translate(-530.000000, -932.000000)" fill="#484D6D" fill-rule="nonzero">
            <g id="Group-2" transform="translate(530.000000, 902.000000)">
                <path d="M29.1564548,30 C30.7067541,30 32.1487603,30.5015674 33.476774,31.5047022 L33.476774,30.2108863 L35.8449701,30.2108863 L35.8449701,36.092904 L33.476774,36.092904 L33.476774,34.7420918 C32.4821887,33.245939 31.1114278,32.4992875 29.3644913,32.4992875 C28.3043602,32.4992875 27.492163,32.7415218 26.9250499,33.2316899 C26.3579367,33.7190083 26.0758051,34.3032203 26.0758051,34.9786264 C26.0758051,35.5001425 26.2182958,35.9589627 26.5089769,36.3522371 C26.7968082,36.7455115 27.1644343,37.0390425 27.6090054,37.2242804 C28.0535765,37.4095184 28.9341693,37.6688515 30.2422343,38.0022799 C31.9521231,38.446851 33.1917925,38.8629239 33.9640923,39.2476489 C34.7363921,39.6323739 35.3975492,40.276432 35.9561129,41.1798233 C36.5118267,42.0803648 36.7911086,43.1148475 36.7911086,44.2861214 C36.7911086,45.939014 36.2068966,47.306925 35.0413223,48.384155 C33.8757481,49.461385 32.4337418,50 30.7153035,50 C28.9512682,50 27.3610715,49.3644913 25.9504132,48.0906241 L25.9504132,49.69222 L23.5309205,49.69222 L23.5309205,42.6560274 L25.9561129,42.6560274 L25.9561129,44.368766 C27.1188373,46.477629 28.6377885,47.5320604 30.5129667,47.5320604 C31.4705044,47.5320604 32.277002,47.2385295 32.938159,46.6543175 C33.5964662,46.0701054 33.9270447,45.3035053 33.9270447,44.354517 C33.9270447,43.4368766 33.6563123,42.7728698 33.1176973,42.3681961 C32.5790824,41.9635224 31.5616985,41.5616985 30.0655457,41.1627244 C28.3271587,40.6982046 27.0418923,40.2593331 26.2040467,39.84611 C25.369051,39.4328869 24.7021944,38.8429752 24.2034768,38.076375 C23.707609,37.3097749 23.4568253,36.400684 23.4568253,35.3519521 C23.4568253,33.7275577 23.9982901,32.4280422 25.0812197,31.4562553 C26.1641493,30.4844685 27.5206612,30 29.1564548,30 Z M119.746366,30 C121.296666,30 122.738672,30.5015674 124.066686,31.5047022 L124.066686,30.2108863 L126.434882,30.2108863 L126.434882,36.092904 L124.066686,36.092904 L124.066686,34.7420918 C123.0721,33.245939 121.701339,32.4992875 119.957253,32.4992875 C118.899972,32.4992875 118.084924,32.7415218 117.517811,33.2316899 C116.950698,33.7190083 116.668567,34.3032203 116.668567,34.9786264 C116.668567,35.5001425 116.811057,35.9589627 117.101738,36.3522371 C117.38957,36.7455115 117.757196,37.0390425 118.201767,37.2242804 C118.649188,37.4095184 119.526931,37.6688515 120.837846,38.0022799 C122.547734,38.446851 123.787404,38.8629239 124.559704,39.2476489 C125.332003,39.6323739 125.99316,40.276432 126.551724,41.1798233 C127.110288,42.0803648 127.38672,43.1148475 127.38672,44.2861214 C127.38672,45.939014 126.802508,47.306925 125.636934,48.384155 C124.471359,49.461385 123.029353,50 121.310915,50 C119.546879,50 117.956683,49.3644913 116.546025,48.0906241 L116.546025,49.69222 L114.117982,49.69222 L114.117982,42.6560274 L116.543175,42.6560274 L116.543175,44.368766 C117.705899,46.477629 119.22485,47.5320604 121.100028,47.5320604 C122.057566,47.5320604 122.864064,47.2385295 123.525221,46.6543175 C124.186378,46.0701054 124.514107,45.3035053 124.514107,44.354517 C124.514107,43.4368766 124.243374,42.7728698 123.704759,42.3681961 C123.166144,41.9635224 122.14876,41.5616985 120.652608,41.1627244 C118.914221,40.6982046 117.628954,40.2593331 116.793958,39.84611 C115.956113,39.4328869 115.289256,38.8429752 114.793388,38.076375 C114.294671,37.3097749 114.046737,36.400684 114.046737,35.3519521 C114.046737,33.7275577 114.588202,32.4280422 115.671131,31.4562553 C116.754061,30.4844685 118.113423,30 119.746366,30 Z M46.8481049,30 C49.38444,30 51.5161015,30.692505 53.2430892,32.077515 L53.2430892,30.30778 L55.7509262,30.30778 L55.7509262,36.5374751 L53.2430892,36.5374751 C52.6845255,35.2750071 51.8267313,34.2946708 50.6640068,33.6021659 C49.5012824,32.9096609 48.2815617,32.5648333 46.9991451,32.5648333 C45.0669706,32.5648333 43.4796238,33.2601881 42.2399544,34.6565973 C41.000285,36.0501567 40.3790254,37.8113423 40.3790254,39.9373041 C40.3790254,42.1202622 41.0430322,43.9042462 42.3710459,45.2892562 C43.6990596,46.6742662 45.2750071,47.3667712 47.0960388,47.3667712 C48.5921915,47.3667712 49.9515531,46.8851525 51.1798233,45.9247649 C52.4080935,44.9615275 53.2715873,43.5879168 53.7731547,41.8039327 L56.2952408,43.2117412 C55.7281277,45.369051 54.5825021,47.0390425 52.861214,48.2217156 C51.1370761,49.4072385 49.1564548,49.9971502 46.9165004,49.9971502 C43.9811912,49.9971502 41.6243944,49.0453121 39.8518096,47.138786 C38.076375,45.2351097 37.1900826,42.8811627 37.1900826,40.0740952 C37.1900826,36.9991451 38.0820747,34.5511542 39.8660587,32.7301225 C41.6500427,30.9090909 43.9783414,30 46.8481049,30 Z M65.3263038,30.30778 C66.9706469,30.30778 68.2758621,30.4360217 69.2419493,30.6896552 C70.2080365,30.9461385 71.0059846,31.4847535 71.6386435,32.3055001 C72.2713024,33.1290966 72.5876318,34.1521801 72.5876318,35.3776005 C72.5876318,37.9395839 71.2567683,39.5525791 68.5921915,40.2137361 L72.014819,47.2670276 L76.184098,47.2670276 L76.184098,32.7329724 L74.092334,32.7329724 L74.092334,30.30778 L81.199772,30.30778 L81.199772,32.7329724 L79.108008,32.7329724 L79.108008,47.2670276 L81.199772,47.2670276 L81.199772,49.69222 L70.185238,49.69222 L65.7708749,40.6355087 L63.0379025,40.6355087 L63.0379025,47.2670276 L65.5172414,47.2670276 L65.5172414,49.69222 L57.4494158,49.69222 L57.4494158,47.2670276 L60.1139926,47.2670276 L60.1139926,32.7329724 L57.4522656,32.7329724 L57.4522656,30.30778 L65.3263038,30.30778 Z M89.615275,30.30778 C91.6500427,30.30778 93.1718438,30.4502707 94.1863779,30.738102 C95.1980621,31.0259333 96.0473069,31.6785409 96.7284127,32.6959248 C97.4123682,33.7133086 97.7514962,34.9130806 97.7514962,36.2980906 C97.7514962,37.4038188 97.5263608,38.3955543 97.0760901,39.2732972 C96.6258193,40.1510402 96.0672556,40.7979481 95.4032488,41.2168709 C94.7392419,41.6357937 93.9897407,41.9150755 93.1604446,42.0604161 C92.3282987,42.2029068 91.0715304,42.277002 89.3901396,42.277002 L88.0507267,42.277002 L88.0507267,47.2641778 L90.5585637,47.2641778 L90.5585637,49.6893702 L82.6845255,49.6893702 L82.6845255,47.2670276 L85.1296666,47.2670276 L85.1296666,32.7329724 L82.6902251,32.7329724 L82.6902251,30.30778 L89.615275,30.30778 Z M104.836136,30.30778 C106.870903,30.30778 108.392704,30.4502707 109.407239,30.738102 C110.418923,31.0259333 111.268168,31.6785409 111.949273,32.6959248 C112.633229,33.7133086 112.972357,34.9130806 112.972357,36.2980906 C112.972357,37.4038188 112.747221,38.3955543 112.296951,39.2732972 C111.84668,40.1510402 111.288116,40.7979481 110.624109,41.2168709 C109.960103,41.6357937 109.213451,41.9150755 108.381305,42.0604161 C107.549159,42.2029068 106.292391,42.277002 104.611,42.277002 L103.274437,42.277002 L103.274437,47.2641778 L105.782274,47.2641778 L105.782274,49.6893702 L97.908236,49.6893702 L97.908236,47.2670276 L100.347677,47.2670276 L100.347677,32.7329724 L97.908236,32.7329724 L97.908236,30.30778 L104.836136,30.30778 Z M19.4870333,30.0142491 L19.4870333,49.6551724 L-4.33431069e-13,49.6551724 L-4.33431069e-13,30.0142491 L19.4870333,30.0142491 Z M7.22428042,37.8398404 L1.0230835,40.1196922 L1.0230835,46.0786549 L0.997435167,46.0786549 L0.997435167,47.1330863 L1.0230835,47.1330863 L1.0230835,48.6292391 L18.4753491,48.6292391 L18.4753491,40.1652893 L12.2200057,37.8540895 L12.5733827,46.0786549 L16.1442006,46.0786549 L16.1442006,47.1330863 L1.09743517,47.1330863 L1.09743517,46.0786549 L6.84810487,46.0815047 L7.22428042,37.8398404 Z M11.2140211,37.8426902 L8.23596466,37.8426902 L7.89398689,46.0786549 L11.5502992,46.0786549 L11.2140211,37.8426902 Z M89.8689085,32.7301225 L88.0564263,32.7301225 L88.0564263,39.9373041 L89.7292676,39.9373041 C91.6329439,39.9373041 92.9524081,39.6637219 93.6876603,39.1222571 C94.4200627,38.5779424 94.7876888,37.6204047 94.7876888,36.2439441 C94.7876888,35.369051 94.5939014,34.6451981 94.2034768,34.0695355 C93.8130522,33.4938729 93.3285836,33.1262468 92.7529211,32.9666572 C92.1772585,32.8099174 91.2140211,32.7301225 89.8689085,32.7301225 Z M105.086919,32.7301225 L103.274437,32.7301225 L103.274437,39.9373041 L104.947278,39.9373041 C106.850955,39.9373041 108.170419,39.6637219 108.905671,39.1222571 C109.638074,38.5779424 110.0057,37.6204047 110.0057,36.2439441 C110.0057,35.369051 109.811912,34.6451981 109.421488,34.0695355 C109.031063,33.4938729 108.549444,33.1262468 107.970932,32.9666572 C107.395269,32.8099174 106.432032,32.7301225 105.086919,32.7301225 Z M18.4753491,36.8680536 L12.7301225,36.8737532 L18.4753491,39.0538615 L18.4753491,36.8680536 Z M1.0230835,33.7190083 L1.0230835,35.862069 L0.994585352,35.862069 L0.994585352,36.8880023 L1.0230835,36.8880023 L1.0230835,39.0481619 L6.85950413,36.8880023 L1.09458535,36.8880023 L1.09458535,35.862069 L6.84810487,35.8677686 L1.0230835,33.7190083 Z M65.5172414,32.7329724 L63.0379025,32.7329724 L63.0379025,38.2103163 L65.3263038,38.2103163 C66.4320319,38.2103163 67.2470789,38.139071 67.7714449,37.9937304 C68.2958108,37.8483899 68.7261328,37.5577087 69.0595611,37.1159875 C69.3929895,36.6742662 69.5611285,36.0815047 69.5611285,35.337703 C69.5611285,34.7050442 69.3929895,34.1721288 69.0510117,33.7361072 C68.7118837,33.3000855 68.292961,33.0236535 67.7970932,32.9068111 C67.2983756,32.7899687 66.5403249,32.7329724 65.5172414,32.7329724 Z M18.4753491,33.7304075 L12.7301225,35.8592192 L18.4753491,35.862069 L18.4753491,33.7304075 Z M18.4753491,31.045882 L1.0230835,31.045882 L1.0230835,32.6389285 L7.1045882,34.8874323 L9.7492163,31.7241379 L12.399544,34.8988316 L18.4753491,32.6531775 L18.4753491,31.045882 Z M9.76346537,33.2373896 L8.41550299,34.861784 L11.1142776,34.8589342 L9.76346537,33.2373896 Z" id="Combined-Shape"></path>
            </g>
        </g>
    </g>
</svg>