<?xml version="1.0" encoding="UTF-8"?>
<svg width="86px" height="60px" viewBox="0 0 86 60" version="1.1" xmlns="http://www.w3.org/2000/svg" xmlns:xlink="http://www.w3.org/1999/xlink">
    <title>Fill 1</title>
    <g id="Page-1" stroke="none" stroke-width="1" fill="none" fill-rule="evenodd">
        <g id="D-Hearty-Home_v1.0" transform="translate(-464.000000, -802.000000)" fill="#484D6D">
            <g id="Group-11" transform="translate(464.000000, 802.000000)">
                <path d="M35.6712387,6.54350772 C38.4353944,3.66362614 42.2841434,1.87698844 46.5412009,1.87698844 C52.2004248,1.87698844 57.1364584,5.03176693 59.765857,9.71577966 C62.0511539,8.69539307 64.5796288,8.12714463 67.2403618,8.12714463 C77.4465345,8.12714463 85.7211238,16.4736301 85.7211238,26.7690001 C85.7211238,37.065908 77.4465345,45.4123934 67.2403618,45.4123934 C65.9944828,45.4123934 64.7774392,45.2862869 63.5994194,45.0494526 C61.285095,49.1779044 56.8730957,51.9685887 51.8086487,51.9685887 C49.6896356,51.9685887 47.685195,51.4797336 45.8987495,50.6079451 C43.5528984,56.1285672 38.0837955,60 31.7115697,60 C25.0746355,60 19.4179106,55.8009977 17.2471862,49.9112833 C16.2985034,50.1115928 15.3146416,50.2173224 14.3067504,50.2173224 C6.40509809,50.2173224 -1.13686838e-13,43.7455185 -1.13686838e-13,35.7617816 C-1.13686838e-13,30.4101347 2.87622911,25.7386172 7.15327906,23.2389777 C6.27283999,21.2118532 5.78398485,18.9769221 5.78398485,16.6260729 C5.78398485,7.44432376 13.2384971,0 22.4327416,0 C27.831294,0 32.6287258,2.56615308 35.6712387,6.54350772 Z M51.0866118,21.1168889 C50.9278251,21.0678688 50.7842251,21.0349965 50.5952575,21.0009708 C50.4037909,20.9657917 50.1769529,20.948106 49.9199339,20.948106 C49.0216169,20.948106 48.3136132,21.2026259 47.8161074,21.7039764 C47.3222542,22.2016744 46.9858418,22.9600438 46.817059,23.9565932 L46.7565048,24.2930055 L45.629043,24.2930055 C45.629043,24.2930055 45.4904411,24.2880074 45.4625669,24.4379512 L45.277444,25.4710253 C45.2636031,25.5692577 45.3064716,25.6309653 45.4387297,25.6309653 L46.5373562,25.6309653 L45.4223897,31.8495949 C45.3354992,32.3495997 45.2359211,32.7617528 45.1250012,33.0741357 C45.0165803,33.382866 44.9095051,33.6133565 44.7785926,33.7807937 C44.6513327,33.9422716 44.5315699,34.0629956 44.3237632,34.1323927 C44.1524813,34.1891022 43.9546708,34.2156307 43.7391747,34.2156307 C43.619412,34.2156307 43.4594719,34.1954459 43.3410548,34.1714165 C43.2226377,34.1487327 43.16093,34.1223964 43.0726939,34.0856794 C43.0726939,34.0856794 42.9442805,34.0366593 42.8925691,34.1652649 C42.8521997,34.2709945 42.5600015,35.0760772 42.5246302,35.1756553 C42.4894511,35.2738877 42.5384712,35.3505897 42.6015244,35.3732735 C42.7476235,35.4249849 42.8560444,35.4590106 43.0550082,35.5055316 C43.332212,35.5710839 43.5653937,35.5749286 43.7831967,35.5749286 C44.2405252,35.5749286 44.6576764,35.5107219 45.0027394,35.385961 C45.3504936,35.2598545 45.6528802,35.0407059 45.9212411,34.7460087 C46.2097867,34.4259364 46.3924105,34.0908698 46.5661915,33.6335413 C46.7388191,33.1812109 46.8851104,32.6193062 47.0035275,31.9641673 L48.1221465,25.6309653 L49.7586482,25.6309653 C49.7586482,25.6309653 49.8972501,25.6359634 49.924932,25.4860197 L50.1102471,24.4529455 C50.1227424,24.3547131 50.0812195,24.2930055 49.9489614,24.2930055 L48.3603264,24.2930055 C48.3678236,24.2578264 48.4397197,23.6984208 48.6223435,23.1730409 C48.7003912,22.9473563 48.8466825,22.7674238 48.9712512,22.6426628 C49.0923596,22.520401 49.2334605,22.4335105 49.3870568,22.3829525 C49.5444977,22.3325868 49.7234691,22.307404 49.9199339,22.307404 C50.0698776,22.307404 50.2159767,22.3250896 50.3282423,22.3477734 C50.4818385,22.3806457 50.5423928,22.3981392 50.5827622,22.4094811 C50.7438557,22.4598468 50.7653861,22.4119801 50.7980661,22.3339325 L51.177347,21.2906698 C51.2163708,21.1785965 51.1219831,21.1307298 51.0866118,21.1168889 Z M12.4151136,31.1142937 C12.3609031,31.2553946 12.4339527,31.2844222 12.4516383,31.3084516 C12.612924,31.4255231 12.7753631,31.5099146 12.9404935,31.6044945 C13.814781,32.0679745 14.6412019,32.2027317 15.5043397,32.2027317 C17.262911,32.2027317 18.3551937,31.2680822 18.3551937,29.7624929 L18.3551937,29.7336576 C18.3551937,28.3412951 17.1218101,27.8349465 15.9666663,27.4696989 L15.8153769,27.42164 C14.9435885,27.1382847 14.1915628,26.893761 14.1915628,26.319361 L14.1915628,26.2903334 C14.1915628,25.7989792 14.6312056,25.4373841 15.3126808,25.4373841 C16.0698969,25.4373841 16.9682138,25.6894049 17.5464585,26.0094772 C17.5464585,26.0094772 17.7177405,26.1190515 17.7794481,25.9541134 C17.8134738,25.8645316 18.1058641,25.0771345 18.1373908,24.9913975 C18.1700708,24.8995088 18.1122079,24.830304 18.0516537,24.7937793 C17.390171,24.3918146 16.4768596,24.1171099 15.5320216,24.1171099 L15.356895,24.1184556 C13.7467296,24.1184556 12.6229203,25.0909755 12.6229203,26.4842992 L12.6229203,26.5133267 C12.6229203,27.9810456 13.8626477,28.4585588 15.0243274,28.789973 L15.210796,28.8478359 C16.0574016,29.107354 16.7867434,29.3316929 16.7867434,29.9262776 L16.7867434,29.9566509 C16.7867434,30.5006776 16.3117293,30.906487 15.5483617,30.906487 C15.2509732,30.906487 14.3047896,30.9014889 13.2830573,30.2551928 C13.1596421,30.181951 13.0890916,30.1304319 12.9933583,30.0723767 C12.9429925,30.0408501 12.8170782,29.9868319 12.7615221,30.15177 L12.4151136,31.1142937 Z M38.1570373,31.1142937 C38.1028268,31.2553946 38.1758764,31.2844222 38.193562,31.3084516 C38.3548477,31.4255231 38.5172868,31.5099146 38.6824172,31.6044945 C39.5567047,32.0679745 40.3831256,32.2027317 41.2462634,32.2027317 C43.0048347,32.2027317 44.0971174,31.2680822 44.0971174,29.7624929 L44.0971174,29.7336576 C44.0971174,28.3412951 42.8637338,27.8349465 41.70859,27.4696989 L41.5573006,27.42164 C40.6855122,27.1382847 39.9334865,26.893761 39.9334865,26.319361 L39.9334865,26.2903334 C39.9334865,25.7989792 40.3731293,25.4373841 41.0546045,25.4373841 C41.8118206,25.4373841 42.7101375,25.6894049 43.2883822,26.0094772 C43.2883822,26.0094772 43.4596642,26.1190515 43.5213718,25.9541134 C43.5553975,25.8645316 43.8477878,25.0771345 43.8793145,24.9913975 C43.9119945,24.8995088 43.8541316,24.830304 43.7935774,24.7937793 C43.1320947,24.3918146 42.220129,24.1171099 41.2739453,24.1171099 L41.0988187,24.1184556 C39.4886533,24.1184556 38.364844,25.0909755 38.364844,26.4842992 L38.364844,26.5133267 C38.364844,27.9810456 39.605917,28.4585588 40.7662511,28.789973 L40.9527197,28.8478359 C41.7993253,29.107354 42.5300128,29.3316929 42.5300128,29.9262776 L42.5300128,29.9566509 C42.5300128,30.5006776 42.0549986,30.906487 41.2902854,30.906487 C40.9928969,30.906487 40.0480589,30.9014889 39.024981,30.2551928 C38.9015658,30.181951 38.8285162,30.1329309 38.735282,30.0723767 C38.7037553,30.0523842 38.5551572,29.994329 38.5047915,30.15177 L38.1570373,31.1142937 Z M23.2649295,27.1119484 C23.0632743,27.0967618 22.8024106,27.0892646 22.4900278,27.0892646 C22.0642259,27.0892646 21.652265,27.1421294 21.265487,27.2467056 C20.8773633,27.3512817 20.5284557,27.5125674 20.2285681,27.7267179 C19.9261815,27.9433674 19.6843491,28.2194177 19.5080691,28.5469872 C19.3315968,28.8745567 19.2422072,29.259989 19.2422072,29.690789 C19.2422072,30.1317775 19.3177558,30.5135574 19.4701987,30.8259403 C19.6212959,31.1396688 19.839291,31.4016859 20.1178404,31.6033411 C20.3936985,31.804804 20.7351089,31.9522487 21.1293842,32.0416382 C21.5200069,32.13122 21.9621488,32.1765876 22.4460058,32.1765876 C22.9561991,32.1765876 23.4627399,32.1337191 23.9552476,32.0504811 C24.442757,31.9674353 25.0400331,31.8465191 25.2063169,31.8074953 C25.371255,31.7696249 25.5540711,31.7192591 25.5540711,31.7192591 C25.6774863,31.6877325 25.6672978,31.5566278 25.6672978,31.5566278 L25.6647988,27.013716 C25.6647988,26.015821 25.3991292,25.2776363 24.8762483,24.8191544 C24.3547131,24.3629793 23.5861552,24.1324888 22.5934505,24.1324888 C22.2205135,24.1324888 21.622084,24.1828545 21.2616423,24.2547506 C21.2616423,24.2547506 20.177049,24.4650564 19.7310624,24.8153096 C19.7310624,24.8153096 19.6326378,24.8756716 19.6856948,25.0131201 L20.0371015,25.9579581 C20.0813157,26.0802199 20.2008862,26.0385048 20.2008862,26.0385048 C20.2008862,26.0385048 20.2387566,26.0235104 20.2827786,25.9969819 C21.2378051,25.4779458 22.4471592,25.4931324 22.4471592,25.4931324 C22.983881,25.4931324 23.3971876,25.6027067 23.6755447,25.8143581 C23.9464047,26.0235104 24.0838532,26.3358933 24.0838532,26.9985294 L24.0838532,27.2090274 C23.6578591,27.1471275 23.2649295,27.1119484 23.2649295,27.1119484 Z M76.7604456,26.3112871 C76.6358769,25.8401176 76.3271466,25.3651035 76.1254914,25.1484539 C75.8056114,24.8031988 75.4918829,24.5625198 75.1819991,24.4291083 C74.7775353,24.2551351 74.2911793,24.1405627 73.7583022,24.1405627 C73.1385346,24.1405627 72.5752843,24.2451388 72.1179558,24.4592893 C71.6606273,24.6734398 71.2763483,24.9669835 70.9739617,25.3324234 C70.6729207,25.6965177 70.4460827,26.1298167 70.3013293,26.6225166 C70.1563837,27.1113717 70.0833341,27.6442488 70.0833341,28.2073069 C70.0833341,28.7805534 70.1588827,29.3147762 70.3088265,29.7934428 C70.4601159,30.2784533 70.7019483,30.7031017 71.0281721,31.0571997 C71.3557416,31.4124511 71.7753919,31.6894626 72.278088,31.884774 C72.7780928,32.0775863 73.3853651,32.1783177 74.0820269,32.1758641 C75.5170657,32.171974 76.2729361,31.8520939 76.5841656,31.6794664 C76.6395294,31.6479397 76.6912408,31.5950749 76.6270341,31.4414787 L76.300618,30.5318198 C76.251598,30.3968704 76.1141495,30.4460827 76.1141495,30.4460827 C75.7577447,30.5783408 75.2537029,30.8151751 74.0745297,30.812676 C73.3034727,30.8115226 72.7327252,30.5846846 72.3749748,30.2280875 C72.0083815,29.865339 71.8269111,29.3311162 71.7967301,28.5765915 L76.7642903,28.5802439 C76.7642903,28.5802439 76.895395,28.5788983 76.909236,28.4504849 C76.9142341,28.3976201 77.0791722,27.4300983 76.7604456,26.3112871 Z M36.9686368,26.3112871 C36.8440681,25.8401176 36.5353377,25.3651035 36.3336826,25.1484539 C36.0138025,24.8031988 35.7012274,24.5625198 35.3901902,24.4291083 C34.9843809,24.2551351 34.4993704,24.1405627 33.967839,24.1405627 C33.3467257,24.1405627 32.7834754,24.2451388 32.3261469,24.4592893 C31.8688184,24.6734398 31.4845395,24.9669835 31.1821528,25.3324234 C30.8811119,25.6965177 30.6542739,26.1298167 30.5095205,26.6225166 C30.3645748,27.1113717 30.2915253,27.6442488 30.2915253,28.2073069 C30.2915253,28.7805534 30.3670739,29.3147762 30.5170177,29.7934428 C30.6683071,30.2784533 30.9101395,30.7031017 31.2363633,31.0571997 C31.5639328,31.4124511 31.9835831,31.6894626 32.4862792,31.884774 C32.986284,32.0775863 33.5935563,32.1783177 34.2902181,32.1758641 C35.7252569,32.171974 36.4811273,31.8520939 36.7923567,31.6794664 C36.8477206,31.6479397 36.8994319,31.5950749 36.8352253,31.4414787 L36.5088092,30.5318198 C36.4597891,30.3968704 36.3223407,30.4460827 36.3223407,30.4460827 C35.9659359,30.5783408 35.4618941,30.8151751 34.2827209,30.812676 C33.5130095,30.8115226 32.9409164,30.5846846 32.5831659,30.2280875 C32.2165726,29.865339 32.0351022,29.3311162 32.0049212,28.5765915 L36.9724815,28.5802439 C36.9724815,28.5802439 37.1035862,28.5788983 37.1174271,28.4504849 C37.1224252,28.3976201 37.2873634,27.4300983 36.9686368,26.3112871 Z M57.1981661,26.5875297 C57.0545661,26.1000202 56.8290737,25.6703736 56.5305318,25.3126232 C56.2317977,24.953527 55.8527091,24.6649814 55.4028778,24.4558291 C54.9543921,24.2466767 54.4251675,24.1396015 53.8305828,24.1396015 C53.2346524,24.1396015 52.7042744,24.2466767 52.2557887,24.4558291 C51.807303,24.6649814 51.4280222,24.953527 51.1294803,25.3137766 C50.8295927,25.6717193 50.605446,26.1013658 50.461846,26.5875297 C50.3180538,27.0725401 50.2450043,27.6029181 50.2450043,28.1648228 C50.2450043,28.7267275 50.3180538,29.2584512 50.461846,29.7421159 C50.605446,30.228472 50.8295927,30.6581186 51.1294803,31.0172147 C51.4280222,31.3761186 51.8084564,31.6635108 52.2571343,31.8674728 C52.70562,32.071627 53.2346524,32.1750497 53.8305828,32.1750497 C54.4251675,32.1750497 54.9530465,32.071627 55.4028778,31.8674728 C55.8513634,31.6635108 56.2306443,31.3761186 56.5305318,31.0172147 C56.8290737,30.6594642 57.0545661,30.2298177 57.1981661,29.7421159 C57.3417661,29.2571055 57.4148156,28.7267275 57.4148156,28.1648228 C57.4148156,27.6029181 57.3417661,27.0725401 57.1981661,26.5875297 Z M69.2513384,30.6300522 C69.2034718,30.4877978 69.0635243,30.5420083 69.0635243,30.5420083 C68.8507194,30.6239007 68.6238814,30.6981036 68.3807034,30.735974 C68.1363719,30.7749978 67.8666654,30.7938369 67.5769663,30.7938369 C66.867617,30.7938369 66.3020598,30.5821855 65.8975961,30.1652265 C65.4931324,29.7469218 65.265141,29.0715982 65.26764,28.1582868 C65.2701391,27.3280212 65.4704486,26.7032555 65.8308903,26.2257423 C66.1886408,25.7520737 66.7342054,25.5088957 67.4598948,25.5088957 C68.0644758,25.5088957 68.5269947,25.5794462 69.0106595,25.7305434 C69.0106595,25.7305434 69.1265775,25.7809091 69.180788,25.6298119 C69.310547,25.2718692 69.4049347,25.0186949 69.5423831,24.6269188 C69.581407,24.5148454 69.4856736,24.4681321 69.4503023,24.4542912 C69.2601813,24.379896 68.8116956,24.2578264 68.4714386,24.206115 C68.155211,24.1582483 67.7836196,24.1330655 67.3703131,24.1330655 C66.7543902,24.1330655 66.2049808,24.2387951 65.735157,24.4479474 C65.265141,24.6559463 64.8683667,24.944492 64.5521391,25.3033958 C64.2370649,25.662492 63.9977316,26.0921385 63.838945,26.5784946 C63.679005,27.063505 63.5996117,27.5950365 63.5996117,28.1594402 C63.5996117,29.3764838 63.9271812,30.3605379 64.5759763,31.0798835 C65.2261171,31.8042273 66.2013283,32.1708206 67.4737358,32.1708206 C68.2257615,32.1708206 68.9968185,32.0183777 69.5523794,31.8003825 C69.5523794,31.8003825 69.6583012,31.7488634 69.611588,31.6254481 L69.2513384,30.6300522 Z M28.8897433,31.8624746 C28.8897433,31.9457127 28.8305347,32.0137641 28.7472967,32.0137641 L27.4295216,32.0137641 C27.3464758,32.0137641 27.2872673,31.9457127 27.2872673,31.8624746 L27.2872673,21.2583743 C27.2872673,21.1753285 27.3464758,21.1084305 27.4295216,21.1084305 L28.7472967,21.1084305 C28.8305347,21.1084305 28.8897433,21.1753285 28.8897433,21.2583743 L28.8897433,31.8624746 Z M63.3391324,24.5517546 C63.3770029,24.4396813 63.2976096,24.3854708 63.2647373,24.3729755 C63.1803458,24.3414489 62.757043,24.2518671 62.4319726,24.2305289 C61.8072069,24.1926585 61.4606061,24.2972347 61.1507223,24.4371822 C60.8421842,24.5757841 60.5007737,24.8012764 60.3116139,25.0569498 L60.3104605,24.4510232 C60.3104605,24.3677852 60.2512519,24.3010794 60.1680139,24.3010794 L58.894453,24.3010794 C58.811215,24.3010794 58.7520065,24.3677852 58.7520065,24.4510232 L58.7520065,31.8626669 C58.7520065,31.9459049 58.8187122,32.0126107 58.9032959,32.0126107 L60.2083834,32.0126107 C60.2916214,32.0126107 60.3583272,31.9459049 60.3583272,31.8626669 L60.3583272,28.1600169 C60.3583272,27.6623189 60.413691,27.1673123 60.5234575,26.8560828 C60.6305328,26.5473524 60.7766318,26.3016753 60.9581023,26.1253953 C61.1393804,25.948923 61.3460337,25.8255077 61.5728717,25.7563029 C61.8033622,25.6855602 62.0590356,25.661723 62.2380069,25.661723 C62.4988706,25.661723 62.7835715,25.7297744 62.7835715,25.7297744 C62.8804583,25.7397707 62.9335153,25.6805621 62.9661954,25.594825 C63.0505868,25.3681792 63.2937648,24.686704 63.3391324,24.5517546 Z M21.2881708,30.602947 C21.0928594,30.4480051 21.0665231,30.4089812 21.0021242,30.3082498 C20.9027384,30.155807 20.8521804,29.9389652 20.8521804,29.6619537 C20.8521804,29.2259633 20.9971261,28.9110814 21.295668,28.7005834 C21.2931689,28.7005834 21.7241611,28.3276464 22.7370505,28.3414873 C23.4487067,28.3503302 24.0863522,28.456252 24.0863522,28.456252 L24.0863522,30.7152126 C24.0863522,30.7152126 23.4550505,30.8499697 22.7445477,30.8928383 C21.7341574,30.9545459 21.2843261,30.6017936 21.2881708,30.602947 Z M55.7304472,28.1648228 C55.7304472,29.0152731 55.5716606,29.6867521 55.2592778,30.1604206 C54.949394,30.629091 54.481877,30.8584281 53.8305828,30.8584281 C53.1779429,30.8584281 52.7131172,30.629091 52.4082315,30.1604206 C52.0995011,29.6867521 51.9434058,29.0152731 51.9434058,28.1648228 C51.9434058,27.3157181 52.0995011,26.6453926 52.4068859,26.1769144 C52.7131172,25.7132421 53.1779429,25.4875576 53.8305828,25.4875576 C54.481877,25.4875576 54.949394,25.7132421 55.2592778,26.1769144 C55.5716606,26.6453926 55.7304472,27.3157181 55.7304472,28.1648228 Z M71.8194139,27.3493594 C71.8899643,26.8768443 72.0197234,26.4839147 72.2213785,26.1776834 C72.5249185,25.7128577 72.9885908,25.4558387 73.6412307,25.4558387 C74.2936783,25.4558387 74.7233249,25.7128577 75.0332087,26.1776834 C75.2387086,26.4850681 75.3280981,26.8933765 75.3632772,27.350705 L71.8194139,27.3493594 Z M32.027605,27.3493594 C32.0981555,26.8768443 32.2279145,26.4839147 32.428224,26.1776834 C32.7344553,25.7128577 33.196782,25.4558387 33.8494219,25.4558387 C34.5018695,25.4558387 34.9328617,25.7128577 35.2427455,26.1776834 C35.4468997,26.4850681 35.5362893,26.8933765 35.5714684,27.350705 L32.027605,27.3493594 Z" id="Fill-1"></path>
            </g>
        </g>
    </g>
</svg>