<?xml version="1.0" encoding="UTF-8"?>
<svg width="44px" height="60px" viewBox="0 0 44 60" version="1.1" xmlns="http://www.w3.org/2000/svg" xmlns:xlink="http://www.w3.org/1999/xlink">
    <title>tiktok-logo</title>
    <g id="Page-1" stroke="none" stroke-width="1" fill="none" fill-rule="evenodd">
        <g id="D-Hearty-Home_v1.0" transform="translate(-1057.000000, -907.000000)" fill="#484D6D">
            <g id="Group-2" transform="translate(530.000000, 902.000000)">
                <path d="M557.42532,56.9231158 C557.492787,56.9231158 557.559749,56.9246319 557.625953,56.9279168 C559.763179,57.0325292 561.464015,58.798558 561.464015,60.9613052 C561.464015,63.1245578 559.763179,64.8905866 557.625953,64.9946936 C557.559749,64.9984839 557.492787,65 557.42532,65 C557.332584,65 557.240858,64.9957043 557.149638,64.9896398 C555.047789,64.8473771 553.386878,63.0990364 553.386878,60.9613052 C553.386878,58.8238267 555.047789,57.0752333 557.149638,56.933476 C557.240858,56.9271588 557.332584,56.9231158 557.42532,56.9231158 Z M540.594351,55.3175432 L540.594351,59.7825208 L542.701254,57.7253967 L545.560912,57.7253967 L542.651222,60.2841043 L545.861609,64.8008827 L543.303407,64.8008827 L541.296567,61.8393922 L540.494034,62.4915771 C540.494034,62.4915771 540.569082,64.8744146 540.494034,64.7993666 C540.418733,64.7240659 538.085675,64.7993666 538.085675,64.7993666 L538.085675,64.7993666 L538.085675,55.3175432 L540.594351,55.3175432 Z M565.176238,55.3175432 L565.176238,59.7825208 L567.283141,57.7253967 L570.142799,57.7253967 L567.233109,60.2841043 L570.443749,64.8008827 L567.885294,64.8008827 L565.878708,61.8393922 L565.075921,62.4915771 C565.075921,62.4915771 565.151222,64.8744146 565.075921,64.7993666 C565.000621,64.7240659 562.668068,64.7993666 562.668068,64.7993666 L562.668068,64.7993666 L562.668068,55.3175432 L565.176238,55.3175432 Z M534.724686,55.3175432 L533.9219,57.4747313 L532.065662,57.4747313 L532.065662,64.7993666 L529.657556,64.7993666 L529.657556,57.4246993 L527.350019,57.4246993 L527.350019,55.3175432 L534.724686,55.3175432 Z M553.788397,55.3175432 L552.985611,57.4747313 L551.129373,57.4747313 L551.129373,64.7993666 L548.721267,64.7993666 L548.721267,57.4246993 L546.41373,57.4246993 L546.41373,55.3175432 L553.788397,55.3175432 Z M537.333173,58.478151 L537.333173,64.7993666 L534.92532,64.7993666 L534.92532,58.478151 L537.333173,58.478151 Z M557.42532,59.1839055 C557.331068,59.1839055 557.239595,59.1932549 557.149638,59.2074054 C556.299094,59.3403187 555.647667,60.0736161 555.647667,60.9613052 C555.647667,61.8489943 556.299094,62.5825444 557.149638,62.7154577 C557.239595,62.7293555 557.331068,62.7389576 557.42532,62.7389576 C557.493293,62.7389576 557.560255,62.7344092 557.625953,62.7268286 C558.513137,62.6270173 559.202972,61.8750211 559.202972,60.9613052 C559.202972,60.0475894 558.513137,59.2955931 557.625953,59.1960345 C557.560255,59.1884539 557.493293,59.1839055 557.42532,59.1839055 Z M536.129373,55.3175432 C536.794192,55.3175432 537.333173,55.8567771 537.333173,56.5215963 C537.333173,57.1866682 536.794192,57.7253967 536.129373,57.7253967 C535.464301,57.7253967 534.92532,57.1866682 534.92532,56.5215963 C534.92532,55.8567771 535.464301,55.3175432 536.129373,55.3175432 Z M556.698087,5 C556.698087,5 556.697127,5.02472485 556.69668,5.07183601 L556.696908,5.19521388 C556.700478,5.49889488 556.727978,6.13581277 556.873704,6.95630201 L556.873704,6.95630201 L559.156225,6.95630201 C559.156225,6.95630201 559.155035,6.9866766 559.154668,7.044246 L559.154983,7.15059873 C559.164789,8.01128368 559.36659,11.5620854 561.926432,14.3787271 L561.926432,14.3787271 L562.199205,14.5285301 C563.678659,15.3135681 565.554956,15.8725081 567.935326,16.0366059 L567.935326,16.0366059 L567.935326,17.653044 L567.935326,17.653044 L568.395105,17.7448401 C569.018453,17.8597419 569.683364,17.9442404 570.393717,17.9931606 L570.393717,17.9931606 L570.393717,26.1200768 C570.393717,26.1200768 570.126053,26.1583224 569.636607,26.1634314 L569.413399,26.1633841 C567.67893,26.1451074 563.818534,25.6987972 559.256542,22.6084869 L559.256542,22.6084869 L559.256542,30.1324922 C559.256542,35.2322193 559.920856,40.5318217 557.559497,45.250497 C555.085439,50.1940635 550.155518,53.3359725 544.607524,53.3359725 C540.572619,53.3359725 536.91624,51.7147333 534.253425,49.0895691 L534.253425,49.0895691 L533.974726,48.9081225 C530.01126,46.26374 527.400051,41.7522018 527.400051,36.6303359 C527.400051,28.4844682 534.003518,21.881254 542.149386,21.881254 C542.840232,21.881254 543.519454,21.9297699 544.185031,22.0217479 L544.185031,22.0217479 L544.185031,23.8441259 L544.395993,23.8394512 L544.395993,23.8394512 L544.607524,23.8378087 C545.29837,23.8378087 545.977592,23.8863246 546.64317,23.9783026 L546.64317,23.9783026 L546.64317,32.2598632 C546.001598,32.05266 545.318079,31.9397089 544.607524,31.9397089 C540.950386,31.9397089 537.985358,34.9044844 537.985358,38.5618746 C537.985358,40.0903777 538.505135,41.4970857 539.375136,42.6177521 L539.375136,42.6177521 L539.659938,42.7414085 C540.428519,43.0539334 541.268688,43.2272329 542.149386,43.2272329 C545.750427,43.2272329 548.444575,40.4201341 548.704589,36.947458 C549.039905,32.469846 548.871868,27.9763148 548.871868,23.491375 L548.871868,23.491375 L548.871868,5 Z" id="tiktok-logo"></path>
            </g>
        </g>
    </g>
</svg>