<?xml version="1.0" encoding="UTF-8"?>
<svg width="150px" height="30px" viewBox="0 0 150 30" version="1.1" xmlns="http://www.w3.org/2000/svg" xmlns:xlink="http://www.w3.org/1999/xlink">
    <title>upstart-logo</title>
    <g id="Page-1" stroke="none" stroke-width="1" fill="none" fill-rule="evenodd">
        <g id="D-Hearty-Home_v1.0" transform="translate(-1109.000000, -817.000000)" fill="#484D6D" fill-rule="nonzero">
            <g id="Group-11" transform="translate(464.000000, 802.000000)">
                <path d="M724.074609,24.721311 C727.678053,24.721311 731.157239,27.6040658 731.157239,32.6985894 C731.157239,37.793113 727.702904,40.6510164 724.074609,40.6510164 C721.564624,40.6510164 719.974139,39.3835984 718.930383,37.9670723 L718.930383,45 L715.426345,45 L715.426345,25.0443783 L718.930383,25.0443783 L718.930383,27.6040658 C720.048693,26.0135804 721.639178,24.721311 724.074609,24.721311 Z M650.464956,28.4490112 C653.223454,25.8147697 657.547586,25.8893237 660.206679,28.5981192 L660.206679,28.5981192 L666.171,34.5872908 L666.053201,34.4991514 C665.487974,34.117214 664.716368,34.1465938 664.182893,34.5872908 L664.182893,34.5872908 L657.24937,41.5456645 C654.540575,44.2793113 650.092186,44.2793113 647.358539,41.5456645 L647.358539,41.5456645 L647.178046,41.3565867 C644.651143,38.6084704 644.711307,34.2517978 647.358539,31.5802793 L647.358539,31.5802793 Z M660.281233,17.0422486 C662.840921,14.4825611 666.91654,14.3334531 669.650186,16.5700732 L669.650186,16.5700732 L683.045056,29.9897939 C685.753851,32.7234407 685.753851,37.2215323 683.045056,39.9551791 C680.33626,42.6888259 675.86302,42.6888259 673.154225,39.9551791 L673.154225,39.9551791 L666.245554,32.9968054 L660.281233,27.0076338 C657.597289,24.3236896 653.248306,24.2491356 650.514659,26.8833771 L650.514659,26.8833771 L659.759355,17.5641266 L660.156977,17.1665053 C660.206679,17.1416539 660.231531,17.0919513 660.281233,17.0422486 Z M764.805947,24.795865 C769.304038,24.795865 771.490956,27.1815931 771.490956,31.257212 L771.490956,40.3279491 L768.011769,40.3279491 L768.011769,38.464099 C766.992864,39.7066657 765.377527,40.6758678 763.091204,40.6758678 C760.20845,40.6758678 757.673613,39.0356797 757.673613,35.9541142 L757.673613,35.9044115 C757.673613,32.599184 760.307855,30.958996 763.836744,30.958996 C765.675743,30.958996 766.868607,31.2323606 768.061471,31.6051307 L768.061471,31.2075093 C768.061471,29.0951459 766.744351,27.9271331 764.30892,27.9271331 C762.619029,27.9271331 761.32676,28.2999032 759.959936,28.8714839 L759.015586,26.063283 C760.680625,25.317743 762.345664,24.795865 764.805947,24.795865 Z M697.931005,20.0244087 L697.931005,31.5802793 C697.931005,35.3576822 699.869409,37.3706403 703.025529,37.3706403 C706.181648,37.3706403 708.095201,35.4570875 708.095201,31.7293873 L708.095201,20.0244087 L711.648942,20.0244087 L711.648942,31.555428 C711.648942,37.6191536 708.244309,40.6510164 702.975826,40.6510164 C697.732194,40.6510164 694.377264,37.6191536 694.377264,31.7293873 L694.377264,20.0244087 L697.931005,20.0244087 Z M738.960559,24.795865 C740.874111,24.795865 742.936772,25.466851 744.552109,26.5354584 L743.160434,29.0205919 C741.694205,28.1259438 740.128571,27.5543631 738.861153,27.5543631 C737.49433,27.5543631 736.723938,28.2004978 736.723938,29.0951459 L736.723938,29.1448485 C736.723938,30.2631586 738.364127,30.7104826 740.153423,31.2820633 C742.365191,31.9779007 744.875176,32.9968054 744.875176,35.7553035 L744.875176,35.8050062 C744.900028,39.0356797 742.414894,40.6261651 739.258775,40.6261651 C737.096708,40.6261651 734.686129,39.8309224 732.797428,38.3398423 L734.363062,35.9789655 C736.00325,37.2215323 737.792546,37.867667 739.35818,37.867667 C740.84926,37.867667 741.719057,37.2215323 741.719057,36.2026276 L741.719057,36.1529249 C741.719057,34.9600608 740.10372,34.5624395 738.314424,34.0157101 C736.052952,33.3695754 733.542968,32.450076 733.542968,29.5176186 L733.542968,29.4679159 C733.542968,26.5603097 735.928696,24.795865 738.960559,24.795865 Z M751.932955,20.8693541 L751.932955,25.0692297 L756.033425,25.0692297 L756.033425,28.0762411 L751.932955,28.0762411 L751.932955,35.5564929 C751.932955,36.9233163 752.628793,37.4700456 753.796805,37.4700456 C754.567197,37.4700456 755.263034,37.2960863 755.958871,36.9481676 L755.958871,39.8309224 C755.089075,40.3279491 754.119873,40.6261651 752.827603,40.6261651 C750.267916,40.6261651 748.453768,39.5078551 748.453768,36.1280736 L748.453768,28.0762411 L746.515364,28.0762411 L746.515364,25.0692297 L748.453768,25.0692297 L748.453768,20.8693541 L751.932955,20.8693541 Z M790.328267,20.8693541 L790.328267,25.0692297 L794.428737,25.0692297 L794.428737,28.0762411 L790.328267,28.0762411 L790.328267,35.5564929 C790.328267,36.9233163 791.024105,37.4700456 792.192117,37.4700456 C792.962509,37.4700456 793.658346,37.2960863 794.354183,36.9481676 L794.354183,39.8309224 C793.509238,40.3279491 792.515185,40.6261651 791.222915,40.6261651 C788.663228,40.6261651 786.824229,39.5078551 786.824229,36.1280736 L786.824229,28.0762411 L784.885825,28.0762411 L784.885825,25.0692297 L786.824229,25.0692297 L786.824229,20.8693541 L790.328267,20.8693541 Z M783.817217,24.721311 L783.817217,28.4490112 L783.618407,28.4490112 C780.561693,28.4490112 778.424478,30.4619693 778.424478,34.5127368 L778.424478,40.3528004 L774.92044,40.3528004 L774.92044,25.0443783 L778.424478,25.0443783 L778.424478,28.4738625 C779.368829,26.1626884 781.133273,24.6219056 783.817217,24.721311 Z M764.607136,33.2204674 C762.420218,33.2204674 761.127949,34.1151155 761.127949,35.6807495 L761.127949,35.7304522 C761.127949,37.1966809 762.420218,37.9919236 764.060406,37.9919236 C766.371581,37.9919236 768.111174,36.6748029 768.111174,34.7612502 L768.111174,33.8417508 C767.216526,33.4938321 765.973959,33.2204674 764.607136,33.2204674 Z M723.254515,27.7531738 C720.893638,27.7531738 718.830978,29.6915779 718.830978,32.6985894 C718.830978,35.6807495 720.893638,37.6191536 723.254515,37.6191536 C725.640243,37.6191536 727.603499,35.7304522 727.603499,32.6985894 C727.603499,29.6667266 725.615392,27.7531738 723.254515,27.7531738 Z" id="upstart-logo"></path>
            </g>
        </g>
    </g>
</svg>