<?xml version="1.0" encoding="UTF-8"?>
<svg width="25px" height="18px" viewBox="0 0 25 18" version="1.1" xmlns="http://www.w3.org/2000/svg" xmlns:xlink="http://www.w3.org/1999/xlink">
    <title>email-icon</title>
    <g id="Page-1" stroke="none" stroke-width="1" fill="none" fill-rule="evenodd">
        <g id="D-Hearty-Home_v1.0" transform="translate(-1438.000000, -3408.000000)" fill="#FFFFFF" fill-rule="nonzero">
            <path d="M1461.70816,3413.94375 C1461.89097,3413.79844 1462.16285,3413.93437 1462.16285,3414.16406 L1462.16285,3423.75 C1462.16285,3424.99219 1461.15503,3426 1459.91285,3426 L1440.41285,3426 C1439.17066,3426 1438.16285,3424.99219 1438.16285,3423.75 L1438.16285,3414.16875 C1438.16285,3413.93437 1438.43003,3413.80312 1438.61753,3413.94844 C1439.66753,3414.76406 1441.05972,3415.8 1445.84097,3419.27344 C1446.83003,3419.99531 1448.49878,3421.51406 1450.16285,3421.50469 C1451.83628,3421.51875 1453.53785,3419.96719 1454.48941,3419.27344 C1459.27066,3415.8 1460.65816,3414.75938 1461.70816,3413.94375 Z M1450.16285,3420 C1451.25035,3420.01875 1452.81597,3418.63125 1453.60347,3418.05937 C1459.82378,3413.54531 1460.29722,3413.15156 1461.7316,3412.02656 C1462.00347,3411.81563 1462.16285,3411.4875 1462.16285,3411.14062 L1462.16285,3410.25 C1462.16285,3409.00781 1461.15503,3408 1459.91285,3408 L1440.41285,3408 C1439.17066,3408 1438.16285,3409.00781 1438.16285,3410.25 L1438.16285,3411.14062 C1438.16285,3411.4875 1438.32222,3411.81094 1438.5941,3412.02656 C1440.02847,3413.14687 1440.50191,3413.54531 1446.72222,3418.05937 C1447.50972,3418.63125 1449.07535,3420.01875 1450.16285,3420 Z" id="email-icon"></path>
        </g>
    </g>
</svg>