<?xml version="1.0" encoding="UTF-8"?>
<svg width="18px" height="18px" viewBox="0 0 18 18" version="1.1" xmlns="http://www.w3.org/2000/svg" xmlns:xlink="http://www.w3.org/1999/xlink">
    <title>linkedin-icon</title>
    <g id="Page-1" stroke="none" stroke-width="1" fill="none" fill-rule="evenodd">
        <g id="D-Hearty-Home_v1.0" transform="translate(-1338.000000, -3408.000000)" fill="#FFFFFF" fill-rule="nonzero">
            <path d="M1342.0292,3426 L1338.29733,3426 L1338.29733,3413.98232 L1342.0292,3413.98232 L1342.0292,3426 Z M1340.16125,3412.343 C1338.96792,3412.343 1338,3411.35458 1338,3410.16125 C1338,3408.96763 1338.96763,3408 1340.16125,3408 C1341.35488,3408 1342.32251,3408.96763 1342.32251,3410.16125 C1342.32251,3411.35458 1341.35418,3412.343 1340.16125,3412.343 Z M1355.99638,3426 L1352.27255,3426 L1352.27255,3420.14987 C1352.27255,3418.75564 1352.24443,3416.96766 1350.33228,3416.96766 C1348.39202,3416.96766 1348.09469,3418.48242 1348.09469,3420.04942 L1348.09469,3426 L1344.36684,3426 L1344.36684,3413.98232 L1347.94603,3413.98232 L1347.94603,3415.62164 L1347.99826,3415.62164 C1348.49648,3414.67743 1349.71352,3413.68097 1351.52923,3413.68097 C1355.3061,3413.68097 1356.0004,3416.16808 1356.0004,3419.39851 L1356.0004,3426 L1355.99638,3426 Z" id="linkedin-icon"></path>
        </g>
    </g>
</svg>