<?xml version="1.0" encoding="UTF-8"?>
<svg width="72px" height="67px" viewBox="0 0 72 67" version="1.1" xmlns="http://www.w3.org/2000/svg" xmlns:xlink="http://www.w3.org/1999/xlink">
    <title>Group 10</title>
    <g id="Page-1" stroke="none" stroke-width="1" fill="none" fill-rule="evenodd">
        <g id="D-Hearty-Home_v1.0" transform="translate(-445.000000, -2360.000000)">
            <g id="Group-10" transform="translate(445.000000, 2360.000000)">
                <g id="Group-12" fill="#E6F8F8" stroke="#08BDBD" stroke-width="3">
                    <circle id="Oval-Copy-8" cx="20" cy="20" r="18.5"></circle>
                    <circle id="Oval-Copy-9" cx="52" cy="47" r="18.5"></circle>
                </g>
                <g id="Icons/Misc/Heart-Copy-2" transform="translate(19.588333, 22.632429)">
                    <path d="M5.53462096,0.907820478 C0.0670060359,3.47944208 -1.66184367,9.83677356 1.76221301,15.9776279 L1.97223324,16.3472322 L2.18625907,16.707397 L2.40566794,17.0595848 L2.63183726,17.4052583 L2.86614445,17.7458802 L3.10996696,18.0829129 C3.15147351,18.1388672 3.19343392,18.1947329 3.23587689,18.2505404 L3.49655502,18.5849319 L3.77019202,18.9193909 C3.81695461,18.9752209 3.86431455,19.0311147 3.91230053,19.0871027 L4.20795849,19.4244053 L4.52001888,19.7654318 C4.57347233,19.8226611 4.62766662,19.8801065 4.68263042,19.9377986 L5.02187712,20.2871534 L5.3809698,20.6438888 L5.76128589,21.0094672 L6.37456703,21.5776152 L6.81396787,21.9717004 L7.27941311,22.3797479 L8.02942732,23.0211977 L8.56600977,23.4705497 L9.42918649,24.1808124 L10.3664591,24.9389446 L11.7394512,26.032783 L12.867693,26.9218073 C14.7003348,28.3616047 17.2739813,28.3616047 19.1073868,26.9212076 L20.592,25.7496743 L21.6076868,24.9389284 L22.5447237,24.1809093 L23.4077508,23.4706882 L24.4513472,22.5895597 L25.1597296,21.9716987 L25.5991743,21.5775222 L26.0139749,21.1958266 L26.405506,20.8251514 L26.7751426,20.4640362 C26.8350005,20.4045659 26.8940035,20.345433 26.9521801,20.2866072 L27.2915527,19.9370936 C27.3465385,19.8793744 27.4007553,19.8219013 27.4542316,19.764644 L27.7664337,19.4234461 L28.0622406,19.0859664 L28.3430271,18.7507445 C28.3886496,18.6949812 28.4337035,18.6392512 28.4782174,18.5835239 L28.7390513,18.2489503 L28.988302,17.9129835 C29.0289549,17.8567918 29.0691824,17.8004812 29.1090132,17.7440212 L29.3434669,17.403226 L29.5697744,17.0573865 L29.7893106,16.7050421 L30.0034503,16.3447323 L30.2135684,15.9749969 C33.6376251,9.83644802 31.9092281,3.47881365 26.4408804,0.908377299 L26.1851401,0.792992197 C22.8458145,-0.654335941 18.9473602,-0.051848822 16.1507756,2.05825986 L15.986667,2.18450545 L15.823304,2.05775776 C12.9548781,-0.106809836 8.92762187,-0.685276179 5.53462096,0.907820478 Z" id="Fill-1-Copy" fill="#FFFFFF"></path>
                    <path d="M6.80964639,3.62338858 C10.1218703,2.06821869 14.4539854,3.53135452 15.9871581,6.88074764 C17.5202727,3.53150154 21.8524458,2.06933604 25.1646697,3.62338858 C28.6933283,5.28206004 30.3794643,9.51915555 27.5918934,14.5166347 C26.403352,16.6532572 24.6620666,18.4739805 22.1332138,20.6297791 L21.4238237,21.2265209 L20.6743222,21.8428126 L19.8836506,22.4815886 L19.0507505,23.1457834 L17.25403,24.5621678 C16.5084171,25.1479514 15.4658991,25.1479514 14.7202861,24.5621678 L13.3564617,23.4886388 L12.5022059,22.8108329 L11.3006166,21.8435968 L10.5512098,21.227469 C10.4296787,21.12649 10.3098179,21.0263247 10.1916053,20.9269118 L9.50193259,20.3389743 C7.15606989,18.3093673 5.51763829,16.5575909 4.38242271,14.5166347 C1.59589644,9.51915555 3.28333787,5.28194243 6.80964639,3.62338858 Z" id="Path" fill="#FF1F1F" fill-rule="nonzero"></path>
                </g>
            </g>
        </g>
    </g>
</svg>