<?xml version="1.0" encoding="UTF-8"?>
<svg width="68px" height="48px" viewBox="0 0 68 48" version="1.1" xmlns="http://www.w3.org/2000/svg" xmlns:xlink="http://www.w3.org/1999/xlink">
    <title>Group 8</title>
    <g id="Page-1" stroke="none" stroke-width="1" fill="none" fill-rule="evenodd">
        <g id="D-Hearty-Home_v1.0" transform="translate(-444.000000, -1279.000000)">
            <g id="Group-8" transform="translate(446.000000, 1281.000000)">
                <rect id="Rectangle" stroke="#08BDBD" stroke-width="3" fill-opacity="0.1" fill="#08BDBD" x="0" y="2.27373675e-13" width="52" height="38" rx="4"></rect>
                <polyline id="Path-5" stroke="#08BDBD" stroke-width="3" points="0.850380243 1.35657541 25.5 20 51 1"></polyline>
                <path d="M39.122954,18.5402499 C33.6553391,21.1118715 31.9264894,27.469203 35.3505461,33.6100574 L35.5605663,33.9796617 L35.7745921,34.3398264 L35.994001,34.6920143 L36.2201703,35.0376878 L36.4544775,35.3783096 L36.6983,35.7153424 C36.7398065,35.7712967 36.781767,35.8271623 36.8242099,35.8829699 L37.0848881,36.2173614 L37.3585251,36.5518204 C37.4052876,36.6076504 37.4526476,36.6635442 37.5006336,36.7195322 L37.7962915,37.0568347 L38.1083519,37.3978612 C38.1618054,37.4550905 38.2159997,37.512536 38.2709635,37.570228 L38.6102102,37.9195829 L38.9693028,38.2763182 L39.3496189,38.6418967 L39.9629001,39.2100447 L40.4023009,39.6041299 L40.8677461,40.0121773 L41.6177604,40.6536272 L42.1543428,41.1029792 L43.0175195,41.8132419 L43.9547921,42.571374 L45.3277843,43.6652124 L46.456026,44.5542368 C48.2886679,45.9940342 50.8623144,45.9940342 52.6957198,44.553637 L54.180333,43.3821037 L55.1960198,42.5713578 L56.1330567,41.8133388 L56.9960839,41.1031176 L58.0396803,40.2219891 L58.7480627,39.6041281 L59.1875074,39.2099516 L59.6023079,38.828256 L59.993839,38.4575809 L60.3634756,38.0964657 C60.4233336,38.0369953 60.4823365,37.9778625 60.5405131,37.9190367 L60.8798858,37.5695231 C60.9348716,37.5118038 60.9890883,37.4543307 61.0425646,37.3970734 L61.3547667,37.0558756 L61.6505736,36.7183959 L61.9313602,36.383174 C61.9769826,36.3274107 62.0220365,36.2716806 62.0665505,36.2159533 L62.3273844,35.8813798 L62.576635,35.545413 C62.6172879,35.4892212 62.6575154,35.4329106 62.6973463,35.3764507 L62.9317999,35.0356555 L63.1581074,34.6898159 L63.3776436,34.3374715 L63.5917833,33.9771618 L63.8019015,33.6074263 C67.2259581,27.4688775 65.4975611,21.1112431 60.0292135,18.5408068 L59.7734731,18.4254217 C56.4341476,16.9780935 52.5356932,17.5805806 49.7391086,19.6906893 L49.575,19.8169349 L49.411637,19.6901872 C46.5432111,17.5256196 42.5159549,16.9471533 39.122954,18.5402499 Z" id="Fill-1-Copy" fill="#FFFFFF"></path>
                <path d="M40.3979794,21.255818 C43.7102034,19.7006482 48.0423184,21.163784 49.5754911,24.5131771 C51.1086058,21.163931 55.4407789,19.7017655 58.7530028,21.255818 C62.2816613,22.9144895 63.9677974,27.151585 61.1802265,32.1490642 C59.991685,34.2856867 58.2503997,36.10641 55.7215468,38.2622086 L55.0121568,38.8589504 L54.2626552,39.475242 L53.4719837,40.114018 L52.6390835,40.7782129 L50.8423631,42.1945972 C50.0967501,42.7803808 49.0542321,42.7803808 48.3086191,42.1945972 L46.9447948,41.1210683 L46.0905389,40.4432623 L44.8889496,39.4760263 L44.1395428,38.8598984 C44.0180117,38.7589194 43.8981509,38.6587541 43.7799383,38.5593413 L43.0902656,37.9714037 C40.7444029,35.9417967 39.1059713,34.1900204 37.9707557,32.1490642 C35.1842295,27.151585 36.8716709,22.9143719 40.3979794,21.255818 Z" id="Path" fill="#FF1F1F" fill-rule="nonzero"></path>
            </g>
        </g>
    </g>
</svg>