<?xml version="1.0" encoding="UTF-8"?>
<svg width="23px" height="18px" viewBox="0 0 23 18" version="1.1" xmlns="http://www.w3.org/2000/svg" xmlns:xlink="http://www.w3.org/1999/xlink">
    <title>twitter-icon</title>
    <g id="Page-1" stroke="none" stroke-width="1" fill="none" fill-rule="evenodd">
        <g id="D-Hearty-Home_v1.0" transform="translate(-1386.000000, -3408.000000)" fill="#FFFFFF" fill-rule="nonzero">
            <path d="M1405.88478,3412.48592 C1405.89885,3412.68279 1405.89885,3412.8797 1405.89885,3413.07656 C1405.89885,3419.08122 1401.32856,3426 1392.97541,3426 C1390.40196,3426 1388.01135,3425.25466 1386.0004,3423.96096 C1386.36604,3424.00312 1386.71757,3424.01719 1387.09727,3424.01719 C1389.22068,3424.01719 1391.1754,3423.30002 1392.73634,3422.07658 C1390.73946,3422.03438 1389.06602,3420.72657 1388.48944,3418.92656 C1388.77072,3418.96872 1389.05195,3418.99686 1389.34729,3418.99686 C1389.75509,3418.99686 1390.16293,3418.94058 1390.5426,3418.8422 C1388.46135,3418.42028 1386.90037,3416.59218 1386.90037,3414.38437 L1386.90037,3414.32814 C1387.50503,3414.66564 1388.20821,3414.87657 1388.95347,3414.90467 C1387.73003,3414.08903 1386.9285,3412.69685 1386.9285,3411.12184 C1386.9285,3410.27811 1387.15346,3409.50467 1387.54723,3408.82967 C1389.78318,3411.58591 1393.14414,3413.38588 1396.91285,3413.58279 C1396.84255,3413.24529 1396.80035,3412.89376 1396.80035,3412.54219 C1396.80035,3410.03904 1398.82536,3408 1401.34254,3408 C1402.65035,3408 1403.83159,3408.54844 1404.6613,3409.43437 C1405.68783,3409.23751 1406.6722,3408.8578 1407.54411,3408.3375 C1407.20657,3409.39221 1406.4894,3410.27815 1405.54723,3410.84061 C1406.46131,3410.74222 1407.34725,3410.48904 1408.16285,3410.13752 C1407.5442,3411.03748 1406.77072,3411.83901 1405.88478,3412.48592 Z" id="twitter-icon"></path>
        </g>
    </g>
</svg>